<svg width="150" height="150" viewBox="0 0 150 150" fill="none" xmlns="http://www.w3.org/2000/svg">
<rect width="150" height="150" rx="10" fill="#257B58"/>
<path fill-rule="evenodd" clip-rule="evenodd" d="M37.8723 25.2441C35.6137 25.2441 33.7827 27.1822 33.7827 29.5729V33.4199H115.575V29.5729C115.575 27.1822 113.744 25.2441 111.486 25.2441H37.8723ZM115.575 44.4821H33.7827V74.7839C33.7827 77.1746 35.6137 79.1126 37.8723 79.1126H111.486C113.744 79.1126 115.575 77.1746 115.575 74.7839V44.4821Z" fill="#E6EAF1"/>
<path d="M129.863 76.0855C129.863 85.3841 122.436 92.8976 113.304 92.8976C104.172 92.8976 96.7446 85.3841 96.7446 76.0855C96.7446 66.7869 104.172 59.2734 113.304 59.2734C122.436 59.2734 129.863 66.7869 129.863 76.0855Z" fill="#E6EAF1" stroke="#257B58" stroke-width="2"/>
<path d="M113.299 65.8271V86.326" stroke="#257B58" stroke-width="3"/>
<path d="M123.399 76.0762L103.191 76.0762" stroke="#257B58" stroke-width="3"/>
<path d="M17.4902 108.674V115.25H19.4316C20.4251 115.25 21.1178 114.76 21.5098 113.78C21.724 113.243 21.8311 112.602 21.8311 111.859C21.8311 110.834 21.6693 110.048 21.3457 109.501C21.0267 108.95 20.3887 108.674 19.4316 108.674H17.4902ZM19.7871 106.924C20.4115 106.933 20.931 107.006 21.3457 107.143C22.0521 107.375 22.624 107.801 23.0615 108.421C23.4124 108.922 23.6517 109.465 23.7793 110.048C23.9069 110.631 23.9707 111.187 23.9707 111.716C23.9707 113.056 23.7018 114.19 23.1641 115.12C22.4349 116.373 21.3092 117 19.7871 117H15.4463V106.924H19.7871ZM28.3457 110.957C27.8945 110.957 27.5436 111.098 27.293 111.381C27.0469 111.663 26.8919 112.046 26.8281 112.529H29.8564C29.8245 112.014 29.6673 111.625 29.3848 111.36C29.1068 111.091 28.7604 110.957 28.3457 110.957ZM28.3457 109.351C28.9655 109.351 29.5238 109.467 30.0205 109.699C30.5173 109.932 30.9274 110.299 31.251 110.8C31.5426 111.242 31.7318 111.755 31.8184 112.338C31.8685 112.68 31.889 113.172 31.8799 113.814H26.7803C26.8076 114.562 27.0423 115.086 27.4844 115.387C27.7533 115.574 28.0768 115.667 28.4551 115.667C28.8561 115.667 29.182 115.553 29.4326 115.325C29.5693 115.202 29.6901 115.031 29.7949 114.812H31.7842C31.734 115.255 31.5039 115.703 31.0938 116.159C30.4557 116.884 29.5625 117.246 28.4141 117.246C27.4661 117.246 26.6299 116.941 25.9053 116.33C25.1807 115.719 24.8184 114.726 24.8184 113.35C24.8184 112.06 25.1442 111.071 25.7959 110.383C26.4521 109.695 27.3021 109.351 28.3457 109.351ZM37.2256 109.385C38.2054 109.385 38.971 109.738 39.5225 110.444C40.0785 111.151 40.3564 112.062 40.3564 113.179C40.3564 114.336 40.083 115.296 39.5361 116.057C38.9893 116.818 38.2259 117.198 37.2461 117.198C36.6309 117.198 36.1364 117.075 35.7627 116.829C35.5394 116.683 35.2979 116.428 35.0381 116.063V117H33.1309V106.938H35.0723V110.52C35.3184 110.173 35.5895 109.909 35.8857 109.727C36.2367 109.499 36.6833 109.385 37.2256 109.385ZM36.7266 115.592C37.2279 115.592 37.6175 115.389 37.8955 114.983C38.1735 114.578 38.3125 114.045 38.3125 113.384C38.3125 112.855 38.2441 112.418 38.1074 112.071C37.8477 111.415 37.3691 111.087 36.6719 111.087C35.9655 111.087 35.4801 111.408 35.2158 112.051C35.0791 112.393 35.0107 112.835 35.0107 113.377C35.0107 114.015 35.152 114.544 35.4346 114.963C35.7171 115.382 36.1478 115.592 36.7266 115.592ZM43.7607 108.66H41.7852V106.862H43.7607V108.66ZM41.7852 109.549H43.7607V117H41.7852V109.549ZM44.8887 111.005V109.617H45.9277V107.539H47.8555V109.617H49.0654V111.005H47.8555V114.942C47.8555 115.248 47.8942 115.439 47.9717 115.517C48.0492 115.59 48.2861 115.626 48.6826 115.626C48.7419 115.626 48.8034 115.626 48.8672 115.626C48.9355 115.621 49.0016 115.617 49.0654 115.612V117.068L48.1426 117.103C47.222 117.134 46.5931 116.975 46.2559 116.624C46.0371 116.401 45.9277 116.057 45.9277 115.592V111.005H44.8887ZM53.6592 115.626C54.2288 115.626 54.6663 115.423 54.9717 115.018C55.277 114.612 55.4297 114.035 55.4297 113.288C55.4297 112.541 55.277 111.966 54.9717 111.565C54.6663 111.16 54.2288 110.957 53.6592 110.957C53.0895 110.957 52.6497 111.16 52.3398 111.565C52.0345 111.966 51.8818 112.541 51.8818 113.288C51.8818 114.035 52.0345 114.612 52.3398 115.018C52.6497 115.423 53.0895 115.626 53.6592 115.626ZM57.4736 113.288C57.4736 114.382 57.1592 115.318 56.5303 116.098C55.9014 116.872 54.9466 117.26 53.666 117.26C52.3854 117.26 51.4307 116.872 50.8018 116.098C50.1729 115.318 49.8584 114.382 49.8584 113.288C49.8584 112.213 50.1729 111.281 50.8018 110.492C51.4307 109.704 52.3854 109.31 53.666 109.31C54.9466 109.31 55.9014 109.704 56.5303 110.492C57.1592 111.281 57.4736 112.213 57.4736 113.288ZM65.7109 110.957C65.2598 110.957 64.9089 111.098 64.6582 111.381C64.4121 111.663 64.2572 112.046 64.1934 112.529H67.2217C67.1898 112.014 67.0326 111.625 66.75 111.36C66.472 111.091 66.1257 110.957 65.7109 110.957ZM65.7109 109.351C66.3307 109.351 66.889 109.467 67.3857 109.699C67.8825 109.932 68.2926 110.299 68.6162 110.8C68.9079 111.242 69.097 111.755 69.1836 112.338C69.2337 112.68 69.2542 113.172 69.2451 113.814H64.1455C64.1729 114.562 64.4076 115.086 64.8496 115.387C65.1185 115.574 65.4421 115.667 65.8203 115.667C66.2214 115.667 66.5472 115.553 66.7979 115.325C66.9346 115.202 67.0553 115.031 67.1602 114.812H69.1494C69.0993 115.255 68.8691 115.703 68.459 116.159C67.821 116.884 66.9277 117.246 65.7793 117.246C64.8314 117.246 63.9951 116.941 63.2705 116.33C62.5459 115.719 62.1836 114.726 62.1836 113.35C62.1836 112.06 62.5094 111.071 63.1611 110.383C63.8174 109.695 64.6673 109.351 65.7109 109.351ZM72.5537 117H70.6055V106.924H72.5537V117ZM77.4004 110.957C76.9492 110.957 76.5983 111.098 76.3477 111.381C76.1016 111.663 75.9466 112.046 75.8828 112.529H78.9111C78.8792 112.014 78.722 111.625 78.4395 111.36C78.1615 111.091 77.8151 110.957 77.4004 110.957ZM77.4004 109.351C78.0202 109.351 78.5785 109.467 79.0752 109.699C79.5719 109.932 79.9821 110.299 80.3057 110.8C80.5973 111.242 80.7865 111.755 80.873 112.338C80.9232 112.68 80.9437 113.172 80.9346 113.814H75.835C75.8623 114.562 76.097 115.086 76.5391 115.387C76.8079 115.574 77.1315 115.667 77.5098 115.667C77.9108 115.667 78.2367 115.553 78.4873 115.325C78.624 115.202 78.7448 115.031 78.8496 114.812H80.8389C80.7887 115.255 80.5586 115.703 80.1484 116.159C79.5104 116.884 78.6172 117.246 77.4688 117.246C76.5208 117.246 75.6846 116.941 74.96 116.33C74.2354 115.719 73.873 114.726 73.873 113.35C73.873 112.06 74.1989 111.071 74.8506 110.383C75.5068 109.695 76.3568 109.351 77.4004 109.351ZM86.7041 112.222C86.6676 111.944 86.5742 111.693 86.4238 111.47C86.2051 111.169 85.8656 111.019 85.4053 111.019C84.749 111.019 84.3001 111.344 84.0586 111.996C83.931 112.342 83.8672 112.803 83.8672 113.377C83.8672 113.924 83.931 114.364 84.0586 114.696C84.291 115.316 84.7285 115.626 85.3711 115.626C85.8268 115.626 86.1504 115.503 86.3418 115.257C86.5332 115.011 86.6494 114.692 86.6904 114.3H88.6797C88.6341 114.892 88.4199 115.453 88.0371 115.981C87.4264 116.834 86.5218 117.26 85.3232 117.26C84.1247 117.26 83.2428 116.904 82.6777 116.193C82.1126 115.482 81.8301 114.56 81.8301 113.425C81.8301 112.144 82.1423 111.148 82.7666 110.438C83.391 109.727 84.2523 109.371 85.3506 109.371C86.2848 109.371 87.0482 109.581 87.6406 110C88.2376 110.419 88.5908 111.16 88.7002 112.222H86.7041ZM89.2812 111.005V109.617H90.3203V107.539H92.248V109.617H93.458V111.005H92.248V114.942C92.248 115.248 92.2868 115.439 92.3643 115.517C92.4417 115.59 92.6787 115.626 93.0752 115.626C93.1344 115.626 93.196 115.626 93.2598 115.626C93.3281 115.621 93.3942 115.617 93.458 115.612V117.068L92.5352 117.103C91.6146 117.134 90.9857 116.975 90.6484 116.624C90.4297 116.401 90.3203 116.057 90.3203 115.592V111.005H89.2812ZM98.7559 109.371C98.7923 109.371 98.8219 109.373 98.8447 109.378C98.8721 109.378 98.929 109.38 99.0156 109.385V111.381C98.8926 111.367 98.7832 111.358 98.6875 111.354C98.5918 111.349 98.5143 111.347 98.4551 111.347C97.6712 111.347 97.1449 111.602 96.876 112.112C96.7256 112.399 96.6504 112.841 96.6504 113.438V117H94.6885V109.549H96.5479V110.848C96.8486 110.351 97.1107 110.011 97.334 109.829C97.6986 109.524 98.1725 109.371 98.7559 109.371ZM103.507 115.626C104.076 115.626 104.514 115.423 104.819 115.018C105.125 114.612 105.277 114.035 105.277 113.288C105.277 112.541 105.125 111.966 104.819 111.565C104.514 111.16 104.076 110.957 103.507 110.957C102.937 110.957 102.497 111.16 102.188 111.565C101.882 111.966 101.729 112.541 101.729 113.288C101.729 114.035 101.882 114.612 102.188 115.018C102.497 115.423 102.937 115.626 103.507 115.626ZM107.321 113.288C107.321 114.382 107.007 115.318 106.378 116.098C105.749 116.872 104.794 117.26 103.514 117.26C102.233 117.26 101.278 116.872 100.649 116.098C100.021 115.318 99.7061 114.382 99.7061 113.288C99.7061 112.213 100.021 111.281 100.649 110.492C101.278 109.704 102.233 109.31 103.514 109.31C104.794 109.31 105.749 109.704 106.378 110.492C107.007 111.281 107.321 112.213 107.321 113.288ZM105.845 106.5L103.767 108.544H102.358L103.671 106.5H105.845ZM112.852 109.371C113.622 109.371 114.251 109.574 114.738 109.979C115.23 110.381 115.477 111.048 115.477 111.982V117H113.48V112.468C113.48 112.076 113.428 111.775 113.323 111.565C113.132 111.183 112.767 110.991 112.229 110.991C111.569 110.991 111.115 111.271 110.869 111.832C110.742 112.128 110.678 112.507 110.678 112.967V117H108.736V109.562H110.616V110.649C110.867 110.267 111.104 109.991 111.327 109.822C111.728 109.521 112.236 109.371 112.852 109.371ZM119.284 108.66H117.309V106.862H119.284V108.66ZM117.309 109.549H119.284V117H117.309V109.549ZM125.628 112.222C125.591 111.944 125.498 111.693 125.348 111.47C125.129 111.169 124.789 111.019 124.329 111.019C123.673 111.019 123.224 111.344 122.982 111.996C122.855 112.342 122.791 112.803 122.791 113.377C122.791 113.924 122.855 114.364 122.982 114.696C123.215 115.316 123.652 115.626 124.295 115.626C124.751 115.626 125.074 115.503 125.266 115.257C125.457 115.011 125.573 114.692 125.614 114.3H127.604C127.558 114.892 127.344 115.453 126.961 115.981C126.35 116.834 125.446 117.26 124.247 117.26C123.049 117.26 122.167 116.904 121.602 116.193C121.036 115.482 120.754 114.56 120.754 113.425C120.754 112.144 121.066 111.148 121.69 110.438C122.315 109.727 123.176 109.371 124.274 109.371C125.209 109.371 125.972 109.581 126.564 110C127.161 110.419 127.515 111.16 127.624 112.222H125.628ZM132.313 115.626C132.883 115.626 133.321 115.423 133.626 115.018C133.931 114.612 134.084 114.035 134.084 113.288C134.084 112.541 133.931 111.966 133.626 111.565C133.321 111.16 132.883 110.957 132.313 110.957C131.744 110.957 131.304 111.16 130.994 111.565C130.689 111.966 130.536 112.541 130.536 113.288C130.536 114.035 130.689 114.612 130.994 115.018C131.304 115.423 131.744 115.626 132.313 115.626ZM136.128 113.288C136.128 114.382 135.813 115.318 135.185 116.098C134.556 116.872 133.601 117.26 132.32 117.26C131.04 117.26 130.085 116.872 129.456 116.098C128.827 115.318 128.513 114.382 128.513 113.288C128.513 112.213 128.827 111.281 129.456 110.492C130.085 109.704 131.04 109.31 132.32 109.31C133.601 109.31 134.556 109.704 135.185 110.492C135.813 111.281 136.128 112.213 136.128 113.288ZM49.4072 125.674V127.896H51.8818C52.3239 127.896 52.6816 127.813 52.9551 127.649C53.2331 127.481 53.3721 127.185 53.3721 126.761C53.3721 126.291 53.1898 125.981 52.8252 125.831C52.5107 125.726 52.1097 125.674 51.6221 125.674H49.4072ZM49.4072 129.563V132.25H51.8818C52.3239 132.25 52.668 132.191 52.9141 132.072C53.3607 131.854 53.584 131.434 53.584 130.814C53.584 130.29 53.3675 129.93 52.9346 129.734C52.693 129.625 52.3535 129.568 51.916 129.563H49.4072ZM52.292 123.924C53.527 123.942 54.402 124.3 54.917 124.997C55.2269 125.425 55.3818 125.938 55.3818 126.535C55.3818 127.15 55.2269 127.645 54.917 128.019C54.7438 128.228 54.4886 128.42 54.1514 128.593C54.6663 128.78 55.0537 129.076 55.3135 129.481C55.5778 129.887 55.71 130.379 55.71 130.958C55.71 131.555 55.5596 132.09 55.2588 132.564C55.0674 132.879 54.8281 133.143 54.541 133.357C54.2174 133.604 53.8346 133.772 53.3926 133.863C52.9551 133.954 52.4788 134 51.9639 134H47.3975V123.924H52.292ZM61.4316 130.377C61.3086 130.454 61.1833 130.518 61.0557 130.568C60.9326 130.614 60.7617 130.657 60.543 130.698L60.1055 130.78C59.6953 130.853 59.4014 130.942 59.2236 131.047C58.9229 131.225 58.7725 131.5 58.7725 131.874C58.7725 132.207 58.8636 132.448 59.0459 132.599C59.2327 132.744 59.4583 132.817 59.7227 132.817C60.1419 132.817 60.527 132.694 60.8779 132.448C61.2334 132.202 61.418 131.753 61.4316 131.102V130.377ZM60.249 129.468C60.609 129.422 60.8665 129.365 61.0215 129.297C61.2995 129.178 61.4385 128.994 61.4385 128.743C61.4385 128.438 61.3314 128.228 61.1172 128.114C60.9076 127.996 60.5977 127.937 60.1875 127.937C59.7272 127.937 59.4014 128.05 59.21 128.278C59.0732 128.447 58.9821 128.675 58.9365 128.962H57.0566C57.0977 128.31 57.2799 127.775 57.6035 127.355C58.1185 126.699 59.0026 126.371 60.2559 126.371C61.0716 126.371 61.7962 126.533 62.4297 126.856C63.0632 127.18 63.3799 127.791 63.3799 128.688V132.106C63.3799 132.343 63.3844 132.631 63.3936 132.968C63.4072 133.223 63.446 133.396 63.5098 133.487C63.5736 133.578 63.6693 133.654 63.7969 133.713V134H61.6777C61.6185 133.85 61.5775 133.708 61.5547 133.576C61.5319 133.444 61.5137 133.294 61.5 133.125C61.2311 133.417 60.9212 133.665 60.5703 133.87C60.151 134.112 59.6771 134.232 59.1484 134.232C58.474 134.232 57.9157 134.041 57.4736 133.658C57.0361 133.271 56.8174 132.724 56.8174 132.018C56.8174 131.102 57.1706 130.438 57.877 130.028C58.2643 129.805 58.834 129.646 59.5859 129.55L60.249 129.468ZM69.2451 126.371C70.0153 126.371 70.6442 126.574 71.1318 126.979C71.624 127.381 71.8701 128.048 71.8701 128.982V134H69.874V129.468C69.874 129.076 69.8216 128.775 69.7168 128.565C69.5254 128.183 69.1608 127.991 68.623 127.991C67.9622 127.991 67.5088 128.271 67.2627 128.832C67.1351 129.128 67.0713 129.507 67.0713 129.967V134H65.1299V126.562H67.0098V127.649C67.2604 127.267 67.4974 126.991 67.7207 126.822C68.1217 126.521 68.6299 126.371 69.2451 126.371ZM76.6143 127.957C76.1631 127.957 75.8122 128.098 75.5615 128.381C75.3154 128.663 75.1605 129.046 75.0967 129.529H78.125C78.0931 129.014 77.9359 128.625 77.6533 128.36C77.3753 128.091 77.029 127.957 76.6143 127.957ZM76.6143 126.351C77.234 126.351 77.7923 126.467 78.2891 126.699C78.7858 126.932 79.196 127.299 79.5195 127.8C79.8112 128.242 80.0003 128.755 80.0869 129.338C80.137 129.68 80.1576 130.172 80.1484 130.814H75.0488C75.0762 131.562 75.3109 132.086 75.7529 132.387C76.0218 132.574 76.3454 132.667 76.7236 132.667C77.1247 132.667 77.4505 132.553 77.7012 132.325C77.8379 132.202 77.9587 132.031 78.0635 131.812H80.0527C80.0026 132.255 79.7725 132.703 79.3623 133.159C78.7243 133.884 77.8311 134.246 76.6826 134.246C75.7347 134.246 74.8984 133.941 74.1738 133.33C73.4492 132.719 73.0869 131.726 73.0869 130.35C73.0869 129.06 73.4128 128.071 74.0645 127.383C74.7207 126.695 75.5706 126.351 76.6143 126.351ZM82.9854 131.621C83.0264 131.967 83.1152 132.214 83.252 132.359C83.4935 132.619 83.9401 132.749 84.5918 132.749C84.9746 132.749 85.2777 132.692 85.501 132.578C85.7288 132.464 85.8428 132.293 85.8428 132.065C85.8428 131.847 85.7516 131.68 85.5693 131.566C85.387 131.452 84.7103 131.257 83.5391 130.979C82.696 130.769 82.1012 130.507 81.7549 130.192C81.4085 129.882 81.2354 129.436 81.2354 128.853C81.2354 128.164 81.5042 127.574 82.042 127.082C82.5843 126.585 83.3454 126.337 84.3252 126.337C85.2549 126.337 86.0114 126.524 86.5947 126.897C87.1826 127.267 87.5199 127.907 87.6064 128.818H85.6582C85.6309 128.568 85.5602 128.369 85.4463 128.224C85.2321 127.959 84.8675 127.827 84.3525 127.827C83.9287 127.827 83.6257 127.893 83.4434 128.025C83.2656 128.158 83.1768 128.312 83.1768 128.49C83.1768 128.714 83.2725 128.875 83.4639 128.976C83.6553 129.08 84.332 129.26 85.4941 129.516C86.2689 129.698 86.8499 129.974 87.2373 130.343C87.6201 130.716 87.8115 131.184 87.8115 131.744C87.8115 132.482 87.5358 133.086 86.9844 133.556C86.4375 134.021 85.5898 134.253 84.4414 134.253C83.2702 134.253 82.4043 134.007 81.8438 133.515C81.2878 133.018 81.0098 132.387 81.0098 131.621H82.9854ZM93.7109 129.222C93.6745 128.944 93.5811 128.693 93.4307 128.47C93.2119 128.169 92.8724 128.019 92.4121 128.019C91.7559 128.019 91.307 128.344 91.0654 128.996C90.9378 129.342 90.874 129.803 90.874 130.377C90.874 130.924 90.9378 131.364 91.0654 131.696C91.2979 132.316 91.7354 132.626 92.3779 132.626C92.8337 132.626 93.1572 132.503 93.3486 132.257C93.54 132.011 93.6562 131.692 93.6973 131.3H95.6865C95.641 131.892 95.4268 132.453 95.0439 132.981C94.4333 133.834 93.5286 134.26 92.3301 134.26C91.1315 134.26 90.2497 133.904 89.6846 133.193C89.1195 132.482 88.8369 131.56 88.8369 130.425C88.8369 129.144 89.1491 128.148 89.7734 127.438C90.3978 126.727 91.2591 126.371 92.3574 126.371C93.2917 126.371 94.055 126.581 94.6475 127C95.2445 127.419 95.5977 128.16 95.707 129.222H93.7109ZM100.396 132.626C100.966 132.626 101.404 132.423 101.709 132.018C102.014 131.612 102.167 131.035 102.167 130.288C102.167 129.541 102.014 128.966 101.709 128.565C101.404 128.16 100.966 127.957 100.396 127.957C99.8268 127.957 99.387 128.16 99.0771 128.565C98.7718 128.966 98.6191 129.541 98.6191 130.288C98.6191 131.035 98.7718 131.612 99.0771 132.018C99.387 132.423 99.8268 132.626 100.396 132.626ZM104.211 130.288C104.211 131.382 103.896 132.318 103.268 133.098C102.639 133.872 101.684 134.26 100.403 134.26C99.1227 134.26 98.168 133.872 97.5391 133.098C96.9102 132.318 96.5957 131.382 96.5957 130.288C96.5957 129.213 96.9102 128.281 97.5391 127.492C98.168 126.704 99.1227 126.31 100.403 126.31C101.684 126.31 102.639 126.704 103.268 127.492C103.896 128.281 104.211 129.213 104.211 130.288Z" fill="#E6EAF1"/>
</svg>
