<svg width="150" height="150" viewBox="0 0 150 150" fill="none" xmlns="http://www.w3.org/2000/svg">
<rect width="150" height="150" rx="10" fill="#257B58"/>
<path fill-rule="evenodd" clip-rule="evenodd" d="M38.4658 26.04C36.1747 26.04 34.3174 27.9506 34.3174 30.3074V34.0997H117.287V30.3074C117.287 27.9506 115.429 26.04 113.138 26.04H38.4658ZM117.287 45.0051H34.3174V74.8771C34.3174 77.2339 36.1747 79.1444 38.4658 79.1444H113.138C115.429 79.1444 117.287 77.2339 117.287 74.8771V45.0051Z" fill="#E6EAF1"/>
<path d="M61.9773 107.639C61.9773 107.078 61.8284 106.677 61.5305 106.438C61.2376 106.199 60.825 106.079 60.2927 106.079H58.1907V109.258H60.2927C60.825 109.258 61.2376 109.128 61.5305 108.87C61.8284 108.611 61.9773 108.201 61.9773 107.639ZM64.2112 107.625C64.2112 108.899 63.8889 109.8 63.2444 110.327C62.5999 110.854 61.6795 111.118 60.4832 111.118H58.1907V115H55.9495V104.204H60.6516C61.7356 104.204 62.5999 104.482 63.2444 105.039C63.8889 105.596 64.2112 106.458 64.2112 107.625ZM70.1365 111.118C70.0046 111.201 69.8704 111.27 69.7337 111.323C69.6018 111.372 69.4187 111.418 69.1843 111.462L68.7156 111.55C68.2761 111.628 67.9612 111.724 67.7708 111.836C67.4485 112.026 67.2874 112.322 67.2874 112.722C67.2874 113.079 67.385 113.337 67.5803 113.499C67.7805 113.655 68.0222 113.733 68.3054 113.733C68.7546 113.733 69.1672 113.601 69.5432 113.337C69.9241 113.074 70.1218 112.593 70.1365 111.895V111.118ZM68.8694 110.144C69.2551 110.095 69.531 110.034 69.697 109.961C69.9949 109.834 70.1438 109.636 70.1438 109.368C70.1438 109.041 70.0291 108.816 69.7996 108.694C69.575 108.567 69.2429 108.503 68.8035 108.503C68.3103 108.503 67.9612 108.625 67.7561 108.87C67.6096 109.05 67.512 109.294 67.4631 109.602H65.449C65.4929 108.904 65.6882 108.33 66.0349 107.881C66.5867 107.178 67.5339 106.826 68.8767 106.826C69.7507 106.826 70.5271 107 71.2058 107.346C71.8845 107.693 72.2239 108.347 72.2239 109.309V112.971C72.2239 113.225 72.2288 113.533 72.2385 113.894C72.2532 114.167 72.2947 114.353 72.363 114.451C72.4314 114.548 72.5339 114.629 72.6707 114.692V115H70.4002C70.3367 114.839 70.2927 114.688 70.2683 114.546C70.2439 114.404 70.2244 114.243 70.2097 114.062C69.9216 114.375 69.5896 114.641 69.2136 114.861C68.7644 115.12 68.2566 115.249 67.6902 115.249C66.9675 115.249 66.3694 115.044 65.8958 114.634C65.427 114.219 65.1926 113.633 65.1926 112.876C65.1926 111.895 65.5711 111.184 66.3279 110.745C66.7429 110.505 67.3533 110.334 68.1589 110.232L68.8694 110.144ZM77.512 113.286C78.0003 113.286 78.4128 113.103 78.7498 112.737C79.0867 112.366 79.2551 111.777 79.2551 110.972C79.2551 110.215 79.094 109.639 78.7717 109.243C78.4544 108.848 78.0271 108.65 77.49 108.65C76.7576 108.65 76.2522 108.994 75.9739 109.683C75.8274 110.049 75.7542 110.5 75.7542 111.038C75.7542 111.501 75.8323 111.914 75.9885 112.275C76.2717 112.949 76.7795 113.286 77.512 113.286ZM76.992 106.826C77.3923 106.826 77.7415 106.887 78.0393 107.009C78.5471 107.219 78.9573 107.605 79.2698 108.167V107.017H81.2986V114.59C81.2986 115.62 81.1253 116.396 80.7786 116.919C80.1829 117.817 79.0403 118.267 77.3508 118.267C76.3303 118.267 75.4978 118.066 74.8533 117.666C74.2087 117.266 73.8523 116.667 73.7839 115.872H76.0545C76.113 116.116 76.2083 116.292 76.3401 116.399C76.5647 116.589 76.9431 116.685 77.4753 116.685C78.2273 116.685 78.7302 116.433 78.9841 115.93C79.1502 115.608 79.2332 115.066 79.2332 114.304V113.792C79.033 114.133 78.8181 114.39 78.5886 114.561C78.1736 114.878 77.634 115.037 76.97 115.037C75.9446 115.037 75.1243 114.678 74.509 113.96C73.8987 113.237 73.5935 112.261 73.5935 111.03C73.5935 109.844 73.8889 108.848 74.4797 108.042C75.0706 107.231 75.908 106.826 76.992 106.826ZM86.8357 113.528C87.4461 113.528 87.9148 113.311 88.242 112.876C88.5691 112.441 88.7327 111.824 88.7327 111.023C88.7327 110.222 88.5691 109.607 88.242 109.177C87.9148 108.743 87.4461 108.525 86.8357 108.525C86.2253 108.525 85.7542 108.743 85.4221 109.177C85.095 109.607 84.9314 110.222 84.9314 111.023C84.9314 111.824 85.095 112.441 85.4221 112.876C85.7542 113.311 86.2253 113.528 86.8357 113.528ZM90.9226 111.023C90.9226 112.195 90.5857 113.198 89.9119 114.033C89.238 114.863 88.2151 115.278 86.843 115.278C85.471 115.278 84.448 114.863 83.7742 114.033C83.1003 113.198 82.7634 112.195 82.7634 111.023C82.7634 109.871 83.1003 108.872 83.7742 108.027C84.448 107.183 85.471 106.76 86.843 106.76C88.2151 106.76 89.238 107.183 89.9119 108.027C90.5857 108.872 90.9226 109.871 90.9226 111.023ZM94.0501 112.451C94.094 112.822 94.1892 113.086 94.3357 113.242C94.5945 113.521 95.073 113.66 95.7712 113.66C96.1814 113.66 96.5061 113.599 96.7454 113.477C96.9895 113.354 97.1116 113.171 97.1116 112.927C97.1116 112.693 97.0139 112.515 96.8186 112.393C96.6233 112.271 95.8982 112.061 94.6433 111.763C93.74 111.538 93.1028 111.257 92.7317 110.92C92.3606 110.588 92.1751 110.11 92.1751 109.485C92.1751 108.748 92.4631 108.115 93.0393 107.588C93.6204 107.056 94.4358 106.79 95.4856 106.79C96.4817 106.79 97.2922 106.99 97.9172 107.39C98.5471 107.786 98.9085 108.472 99.0012 109.448H96.9138C96.8845 109.18 96.8088 108.967 96.6868 108.811C96.4573 108.528 96.0667 108.386 95.5149 108.386C95.0608 108.386 94.7361 108.457 94.5408 108.599C94.3503 108.74 94.2551 108.906 94.2551 109.097C94.2551 109.336 94.3577 109.509 94.5628 109.617C94.7678 109.729 95.4929 109.922 96.738 110.195C97.5681 110.391 98.1907 110.686 98.6057 111.082C99.0159 111.482 99.221 111.982 99.221 112.583C99.221 113.374 98.9255 114.021 98.3347 114.524C97.7488 115.022 96.8406 115.271 95.6101 115.271C94.3552 115.271 93.4275 115.007 92.8269 114.48C92.2312 113.948 91.9334 113.271 91.9334 112.451H94.0501ZM45.0584 127.88C45.0193 127.583 44.9192 127.314 44.7581 127.075C44.5237 126.752 44.1599 126.591 43.6668 126.591C42.9636 126.591 42.4827 126.94 42.2239 127.639C42.0872 128.01 42.0188 128.503 42.0188 129.118C42.0188 129.704 42.0872 130.175 42.2239 130.532C42.4729 131.196 42.9417 131.528 43.6301 131.528C44.1184 131.528 44.4651 131.396 44.6702 131.132C44.8753 130.869 44.9998 130.527 45.0437 130.107H47.1751C47.1262 130.742 46.8967 131.342 46.4866 131.909C45.8323 132.822 44.863 133.278 43.5789 133.278C42.2947 133.278 41.3499 132.897 40.7444 132.136C40.1389 131.374 39.8362 130.385 39.8362 129.169C39.8362 127.797 40.1707 126.73 40.8396 125.969C41.5086 125.207 42.4314 124.826 43.6082 124.826C44.6091 124.826 45.427 125.051 46.0618 125.5C46.7014 125.949 47.0798 126.743 47.197 127.88H45.0584ZM52.2214 131.528C52.8318 131.528 53.3005 131.311 53.6277 130.876C53.9548 130.441 54.1184 129.824 54.1184 129.023C54.1184 128.222 53.9548 127.607 53.6277 127.177C53.3005 126.743 52.8318 126.525 52.2214 126.525C51.6111 126.525 51.1399 126.743 50.8079 127.177C50.4807 127.607 50.3171 128.222 50.3171 129.023C50.3171 129.824 50.4807 130.441 50.8079 130.876C51.1399 131.311 51.6111 131.528 52.2214 131.528ZM56.3084 129.023C56.3084 130.195 55.9714 131.198 55.2976 132.033C54.6238 132.863 53.6008 133.278 52.2288 133.278C50.8567 133.278 49.8337 132.863 49.1599 132.033C48.4861 131.198 48.1492 130.195 48.1492 129.023C48.1492 127.871 48.4861 126.872 49.1599 126.027C49.8337 125.183 50.8567 124.76 52.2288 124.76C53.6008 124.76 54.6238 125.183 55.2976 126.027C55.9714 126.872 56.3084 127.871 56.3084 129.023ZM62.2337 124.826C63.0588 124.826 63.7327 125.043 64.2551 125.478C64.7825 125.908 65.0462 126.623 65.0462 127.624V133H62.9075V128.144C62.9075 127.724 62.8513 127.402 62.739 127.177C62.5339 126.767 62.1433 126.562 61.5671 126.562C60.8591 126.562 60.3733 126.862 60.1096 127.463C59.9729 127.78 59.9045 128.186 59.9045 128.679V133H57.8245V125.031H59.8386V126.196C60.1072 125.786 60.3611 125.49 60.6003 125.31C61.03 124.987 61.5745 124.826 62.2337 124.826ZM70.3342 126.577V125.09H71.4475V122.863H73.5129V125.09H74.8093V126.577H73.5129V130.795C73.5129 131.123 73.5545 131.328 73.6375 131.411C73.7205 131.489 73.9744 131.528 74.3992 131.528C74.4627 131.528 74.5286 131.528 74.5969 131.528C74.6702 131.523 74.741 131.518 74.8093 131.513V133.073L73.8206 133.11C72.8342 133.144 72.1604 132.973 71.7991 132.597C71.5647 132.358 71.4475 131.989 71.4475 131.491V126.577H70.3342ZM80.5515 129.118C80.4197 129.201 80.2854 129.27 80.1487 129.323C80.0169 129.372 79.8337 129.418 79.5994 129.462L79.1306 129.55C78.6912 129.628 78.3762 129.724 78.1858 129.836C77.8635 130.026 77.7024 130.322 77.7024 130.722C77.7024 131.079 77.8001 131.337 77.9954 131.499C78.1956 131.655 78.4373 131.733 78.7205 131.733C79.1697 131.733 79.5823 131.601 79.9583 131.337C80.3391 131.074 80.5369 130.593 80.5515 129.895V129.118ZM79.2844 128.144C79.6702 128.095 79.9461 128.034 80.1121 127.961C80.4099 127.834 80.5588 127.636 80.5588 127.368C80.5588 127.041 80.4441 126.816 80.2146 126.694C79.99 126.567 79.658 126.503 79.2185 126.503C78.7253 126.503 78.3762 126.625 78.1712 126.87C78.0247 127.05 77.927 127.294 77.8782 127.602H75.864C75.908 126.904 76.1033 126.33 76.45 125.881C77.0017 125.178 77.949 124.826 79.2918 124.826C80.1658 124.826 80.9421 125 81.6209 125.346C82.2996 125.693 82.6389 126.347 82.6389 127.309V130.971C82.6389 131.225 82.6438 131.533 82.6536 131.894C82.6682 132.167 82.7097 132.353 82.7781 132.451C82.8464 132.548 82.949 132.629 83.0857 132.692V133H80.8152C80.7517 132.839 80.7078 132.688 80.6834 132.546C80.6589 132.404 80.6394 132.243 80.6248 132.062C80.3367 132.375 80.0046 132.641 79.6287 132.861C79.1795 133.12 78.6716 133.249 78.1052 133.249C77.3826 133.249 76.7844 133.044 76.3108 132.634C75.842 132.219 75.6077 131.633 75.6077 130.876C75.6077 129.895 75.9861 129.184 76.7429 128.745C77.158 128.505 77.7683 128.334 78.574 128.232L79.2844 128.144ZM88.8352 124.826C88.8743 124.826 88.906 124.829 88.9304 124.833C88.9597 124.833 89.0208 124.836 89.1135 124.841V126.979C88.9817 126.965 88.8645 126.955 88.762 126.95C88.6594 126.945 88.5764 126.943 88.5129 126.943C87.6731 126.943 87.1091 127.216 86.8211 127.763C86.6599 128.071 86.5794 128.544 86.5794 129.184V133H84.4773V125.017H86.4695V126.408C86.7918 125.876 87.0725 125.512 87.3118 125.317C87.7024 124.99 88.2102 124.826 88.8352 124.826ZM92.5266 124.064H90.4392V122.138H92.5266V124.064ZM89.4358 134.531C89.553 134.541 89.636 134.545 89.6848 134.545C89.7337 134.55 89.7776 134.553 89.8167 134.553C90.0217 134.553 90.1755 134.501 90.2781 134.399C90.3855 134.301 90.4392 134.108 90.4392 133.82V125.053H92.5266V133.857C92.5266 134.663 92.3679 135.258 92.0505 135.644C91.7332 136.03 91.1106 136.223 90.1829 136.223C90.1194 136.223 90.0242 136.22 89.8972 136.215C89.7752 136.21 89.6213 136.206 89.4358 136.201V134.531ZM97.6682 126.525C97.1848 126.525 96.8088 126.677 96.5403 126.979C96.2766 127.282 96.1106 127.692 96.0422 128.21H99.2869C99.2527 127.658 99.0842 127.241 98.7815 126.958C98.4837 126.669 98.1126 126.525 97.6682 126.525ZM97.6682 124.804C98.3323 124.804 98.9304 124.929 99.4627 125.178C99.9949 125.427 100.434 125.82 100.781 126.357C101.094 126.831 101.296 127.38 101.389 128.005C101.443 128.371 101.465 128.898 101.455 129.587H95.991C96.0203 130.388 96.2717 130.949 96.7454 131.271C97.0335 131.472 97.3801 131.572 97.7854 131.572C98.2151 131.572 98.5642 131.45 98.8328 131.206C98.9793 131.074 99.1087 130.891 99.221 130.656H101.352C101.299 131.13 101.052 131.611 100.613 132.099C99.929 132.875 98.9719 133.264 97.7415 133.264C96.7258 133.264 95.8298 132.937 95.0535 132.282C94.2771 131.628 93.8889 130.563 93.8889 129.089C93.8889 127.707 94.238 126.647 94.9363 125.91C95.6394 125.173 96.5501 124.804 97.6682 124.804ZM102.048 126.577V125.09H103.161V122.863H105.227V125.09H106.523V126.577H105.227V130.795C105.227 131.123 105.268 131.328 105.351 131.411C105.434 131.489 105.688 131.528 106.113 131.528C106.177 131.528 106.242 131.528 106.311 131.528C106.384 131.523 106.455 131.518 106.523 131.513V133.073L105.534 133.11C104.548 133.144 103.874 132.973 103.513 132.597C103.279 132.358 103.161 131.989 103.161 131.491V126.577H102.048ZM112.265 129.118C112.134 129.201 111.999 129.27 111.863 129.323C111.731 129.372 111.548 129.418 111.313 129.462L110.844 129.55C110.405 129.628 110.09 129.724 109.9 129.836C109.577 130.026 109.416 130.322 109.416 130.722C109.416 131.079 109.514 131.337 109.709 131.499C109.909 131.655 110.151 131.733 110.434 131.733C110.884 131.733 111.296 131.601 111.672 131.337C112.053 131.074 112.251 130.593 112.265 129.895V129.118ZM110.998 128.144C111.384 128.095 111.66 128.034 111.826 127.961C112.124 127.834 112.273 127.636 112.273 127.368C112.273 127.041 112.158 126.816 111.928 126.694C111.704 126.567 111.372 126.503 110.932 126.503C110.439 126.503 110.09 126.625 109.885 126.87C109.739 127.05 109.641 127.294 109.592 127.602H107.578C107.622 126.904 107.817 126.33 108.164 125.881C108.716 125.178 109.663 124.826 111.006 124.826C111.88 124.826 112.656 125 113.335 125.346C114.013 125.693 114.353 126.347 114.353 127.309V130.971C114.353 131.225 114.358 131.533 114.367 131.894C114.382 132.167 114.424 132.353 114.492 132.451C114.56 132.548 114.663 132.629 114.8 132.692V133H112.529C112.466 132.839 112.422 132.688 112.397 132.546C112.373 132.404 112.353 132.243 112.339 132.062C112.051 132.375 111.719 132.641 111.343 132.861C110.893 133.12 110.386 133.249 109.819 133.249C109.096 133.249 108.498 133.044 108.025 132.634C107.556 132.219 107.322 131.633 107.322 130.876C107.322 129.895 107.7 129.184 108.457 128.745C108.872 128.505 109.482 128.334 110.288 128.232L110.998 128.144Z" fill="#E6EAF1"/>
</svg>
