<svg width="150" height="150" viewBox="0 0 150 150" fill="none" xmlns="http://www.w3.org/2000/svg">
<rect width="150" height="150" rx="10" fill="#257B58"/>
<path d="M32.5343 49.3667C32.9442 48.7865 33.5047 48.329 34.1552 48.0432C34.8056 47.7575 35.522 47.6542 36.2266 47.7448C39.1013 47.8567 41.976 47.7689 44.8567 47.778C47.6043 47.778 48.3004 48.477 48.3156 51.1822C48.3156 51.7874 48.3156 52.4139 48.3156 53.2249C52.1948 52.2566 55.862 51.3062 59.5476 50.4287C63.6418 49.4354 67.9385 49.6756 71.8966 51.1187C76.9408 52.9342 81.9397 54.8679 86.9597 56.7409C88.2081 57.2361 89.304 58.0508 90.1379 59.1035C90.9717 60.1562 91.5137 61.4096 91.7099 62.7381C96.0824 61.2585 100.374 59.791 104.679 58.3536C110.762 56.3263 114.489 58.1209 116.743 64.1274C116.783 64.2303 116.91 64.2997 116.994 64.3845V67.7613C116.632 68.9804 116.032 70.1157 115.229 71.1023C114.426 72.0889 113.437 72.9074 112.317 73.5106C105.336 77.1024 98.4189 80.8121 91.4381 84.4039C87.6628 86.4285 83.2948 87.0594 79.1009 86.1862C73.8559 85.121 68.6104 84.041 63.3654 82.9456C58.3969 81.9198 53.4283 80.8877 48.3629 79.8377C48.3326 80.3309 48.3054 80.6369 48.2993 80.9425C48.2358 83.9261 47.5134 84.6278 44.4844 84.6278C41.7369 84.6278 38.9859 84.5461 36.2414 84.6581C35.5004 84.7592 34.7472 84.6312 34.0813 84.2909C33.4154 83.9506 32.8688 83.4147 32.5166 82.755L32.5343 49.3667ZM48.3185 74.3609C48.8753 74.5364 49.2809 74.7088 49.7015 74.7935C58.979 76.718 68.2802 78.5154 77.5214 80.5942C81.8255 81.7847 86.4226 81.2632 90.3506 79.1388C96.6294 75.6711 103.06 72.4485 109.415 69.1169C111.575 67.9822 112.205 66.7206 111.503 64.9777C110.68 62.9321 109.312 62.3451 106.946 63.1349C102.216 64.7144 97.5077 66.3543 92.7782 67.9308C83.3675 71.0687 86.6833 70.9082 77.4875 68.4904C74.6249 67.737 71.7933 66.8655 68.8248 66.0153L70.2654 61.0257C74.9526 62.3299 79.4366 63.6369 83.9634 64.7686C84.623 64.935 85.477 64.2542 86.2668 63.9667C85.8946 63.2042 85.5404 62.4325 85.1409 61.6821C85.0713 61.552 84.82 61.5097 84.6445 61.4431C79.918 59.6729 75.1976 57.8786 70.456 56.1477C67.5225 55.0031 64.3176 54.7463 61.2393 55.4093C57.233 56.3323 53.2533 57.3763 49.2863 58.4626C49.0409 58.5882 48.8299 58.7717 48.6717 58.9975C48.5134 59.2232 48.4134 59.4841 48.3791 59.7576C48.2853 64.5689 48.3185 69.3833 48.3185 74.3609ZM37.9213 53.001V79.257H42.9744V53.001H37.9213Z" fill="#E6EAF1"/>
<path d="M117.55 34.9931C117.079 36.9723 116.484 38.9199 115.768 40.824C113.987 44.7019 110.919 47.8447 107.086 49.7197C103.253 51.5948 98.8886 52.0867 94.734 51.1123C90.7038 50.1722 87.1056 47.9077 84.5141 44.6811C81.9227 41.4544 80.4874 37.4517 80.4392 33.3135C80.3223 28.7671 81.8994 24.3394 84.8628 20.8895C87.8262 17.4397 91.9655 15.2139 96.4775 14.6437C96.6603 14.5917 96.8357 14.5176 97.0005 14.4229H100.82C101.041 14.5168 101.269 14.5926 101.502 14.6496C105.087 15.0936 108.46 16.5942 111.189 18.9603C113.918 21.3264 115.882 24.4509 116.83 27.9365C117.133 28.8957 117.319 29.8945 117.562 30.8749L117.55 34.9931ZM98.9981 18.544C95.1676 18.5509 91.4936 20.0665 88.7723 22.7623C86.051 25.4581 84.5009 29.1172 84.458 32.9474C84.477 36.8025 86.0134 40.4947 88.7354 43.2246C91.4573 45.9545 95.1461 47.5021 99.0011 47.5323C102.833 47.4926 106.494 45.9469 109.194 43.229C111.895 40.5112 113.419 36.8396 113.435 33.008C113.425 29.1796 111.902 25.5103 109.197 22.8007C106.493 20.091 102.827 18.5607 98.9981 18.544V18.544Z" fill="#E6EAF1"/>
<path d="M89.88 27.1885H94.0007C94.4836 27.1888 94.966 27.2221 95.4443 27.2882C95.8983 27.3466 96.3391 27.484 96.746 27.6938C97.1255 27.8933 97.4484 28.1859 97.6842 28.5441C97.9423 28.9831 98.0669 29.4879 98.0417 29.9965C98.0617 30.5603 97.8746 31.1124 97.5172 31.549C97.1532 31.9711 96.6734 32.2769 96.1372 32.4292V32.4595C96.4812 32.5062 96.8159 32.6087 97.1272 32.7624C97.4161 32.9056 97.6756 33.1014 97.8925 33.3401C98.1085 33.5777 98.2763 33.8553 98.386 34.1571C98.4998 34.4777 98.5576 34.8154 98.5559 35.1556C98.5752 35.6688 98.4448 36.1767 98.1806 36.6172C97.9358 37.0012 97.6044 37.3234 97.2143 37.5584C96.8014 37.8039 96.3507 37.9789 95.8801 38.0758C95.3955 38.1777 94.9023 38.2291 94.4071 38.2299H89.8682L89.88 27.1885ZM92.3164 31.6033H94.0776C94.264 31.6036 94.4487 31.5823 94.6302 31.5397C94.8053 31.5019 94.9725 31.4332 95.1237 31.3369C95.27 31.243 95.3913 31.1139 95.4753 30.9617C95.5676 30.7898 95.6133 30.597 95.6083 30.4021C95.6152 30.202 95.5642 30.0044 95.4605 29.8332C95.3648 29.685 95.2311 29.5638 95.0749 29.4819C94.9092 29.3935 94.731 29.3324 94.5459 29.3006C94.3553 29.2649 94.1621 29.2465 93.9682 29.2459H92.3164V31.6033ZM92.3164 36.1754H94.4972C94.6896 36.1751 94.8812 36.1538 95.069 36.1119C95.2544 36.0719 95.4319 35.9979 95.5905 35.8939C95.7477 35.7896 95.8789 35.6512 95.9747 35.4887C96.0779 35.3041 96.1286 35.0947 96.1224 34.8833C96.1327 34.656 96.0633 34.4323 95.9259 34.251C95.7966 34.0889 95.6275 33.963 95.4354 33.8849C95.2315 33.7985 95.0168 33.7404 94.7971 33.7124C94.5846 33.6825 94.3705 33.6663 94.1559 33.664H92.3164V36.1754Z" fill="#E6EAF1"/>
<path d="M103.989 32.8829C103.828 32.6771 103.622 32.5119 103.386 32.4005C103.15 32.2891 102.89 32.2344 102.629 32.2413C102.428 32.2427 102.231 32.2918 102.052 32.3839C101.962 32.4263 101.886 32.4949 101.836 32.5808C101.786 32.6666 101.764 32.7656 101.771 32.8648C101.771 32.957 101.799 33.047 101.854 33.1215C101.908 33.196 101.985 33.2511 102.072 33.2792C102.308 33.382 102.554 33.4601 102.805 33.5123L103.758 33.7332C104.091 33.8088 104.411 33.932 104.708 34.0993C105.003 34.2637 105.254 34.496 105.441 34.7771C105.654 35.1205 105.76 35.5201 105.744 35.924C105.761 36.3505 105.65 36.7725 105.423 37.1344C105.215 37.4504 104.934 37.7117 104.603 37.8968C104.256 38.0961 103.875 38.2334 103.48 38.3024C103.075 38.3803 102.662 38.42 102.248 38.4206C101.705 38.4189 101.165 38.3423 100.642 38.1934C100.121 38.0543 99.6457 37.7772 99.2681 37.3915L100.686 35.815C100.886 36.0633 101.133 36.2693 101.413 36.4204C101.701 36.5649 102.021 36.6365 102.343 36.6291C102.592 36.632 102.838 36.5932 103.074 36.5142C103.169 36.4903 103.254 36.4346 103.313 36.3565C103.373 36.2785 103.404 36.1824 103.402 36.0843C103.404 35.9899 103.377 35.8973 103.325 35.818C103.274 35.7387 103.201 35.6765 103.114 35.6396C102.881 35.5266 102.635 35.4422 102.381 35.3884L101.428 35.1705C101.097 35.0958 100.778 34.9779 100.478 34.8195C100.181 34.6646 99.9273 34.4366 99.7423 34.1569C99.5352 33.8115 99.436 33.4123 99.4557 33.01C99.4447 32.6076 99.5381 32.2094 99.7276 31.8542C99.9042 31.5387 100.15 31.2666 100.446 31.0582C100.757 30.8456 101.103 30.69 101.468 30.5983C101.851 30.5009 102.243 30.4512 102.638 30.4502C103.15 30.4528 103.66 30.5272 104.151 30.6711C104.645 30.8083 105.094 31.0769 105.447 31.4486L103.989 32.8829Z" fill="#E6EAF1"/>
<path d="M106.962 36.8874C106.961 36.6945 106.999 36.5036 107.071 36.3249C107.142 36.1537 107.245 35.9976 107.374 35.865C107.506 35.7346 107.662 35.6315 107.834 35.5621C108.013 35.4907 108.204 35.4538 108.397 35.4531C108.588 35.4536 108.779 35.4906 108.957 35.5621C109.129 35.6307 109.285 35.734 109.416 35.865C109.546 35.9968 109.649 36.1531 109.719 36.3249C109.792 36.5036 109.829 36.6945 109.828 36.8874C109.829 37.0794 109.792 37.2698 109.719 37.4474C109.651 37.6199 109.548 37.7765 109.416 37.9073C109.285 38.0383 109.129 38.1411 108.957 38.2098C108.779 38.2825 108.589 38.3195 108.397 38.3187C108.204 38.3196 108.012 38.2826 107.834 38.2098C107.662 38.1404 107.506 38.0376 107.374 37.9073C107.244 37.7757 107.14 37.6194 107.071 37.4474C106.998 37.2698 106.961 37.0794 106.962 36.8874" fill="#E6EAF1"/>
<path d="M45.2937 116.637C46.1873 116.637 46.8953 116.307 47.4177 115.648C47.9451 114.989 48.2087 114.051 48.2087 112.835C48.2087 111.625 47.9451 110.689 47.4177 110.03C46.8953 109.366 46.1873 109.034 45.2937 109.034C44.4001 109.034 43.6873 109.364 43.155 110.023C42.6228 110.682 42.3567 111.62 42.3567 112.835C42.3567 114.051 42.6228 114.989 43.155 115.648C43.6873 116.307 44.4001 116.637 45.2937 116.637ZM50.4646 112.835C50.4646 114.774 49.9202 116.258 48.8313 117.289C48.0159 118.128 46.8367 118.548 45.2937 118.548C43.7507 118.548 42.5715 118.128 41.7561 117.289C40.6623 116.258 40.1155 114.774 40.1155 112.835C40.1155 110.858 40.6623 109.374 41.7561 108.382C42.5715 107.542 43.7507 107.123 45.2937 107.123C46.8367 107.123 48.0159 107.542 48.8313 108.382C49.9202 109.374 50.4646 110.858 50.4646 112.835ZM51.2043 111.825V110.338H52.3176V108.111H54.3831V110.338H55.6794V111.825H54.3831V116.043C54.3831 116.371 54.4246 116.576 54.5076 116.659C54.5906 116.737 54.8445 116.776 55.2693 116.776C55.3328 116.776 55.3987 116.776 55.467 116.776C55.5403 116.771 55.6111 116.766 55.6794 116.761V118.321L54.6907 118.358C53.7043 118.392 53.0305 118.221 52.6692 117.845C52.4348 117.606 52.3176 117.237 52.3176 116.739V111.825H51.2043ZM60.6013 116.776C61.2117 116.776 61.6804 116.559 62.0076 116.124C62.3347 115.689 62.4983 115.072 62.4983 114.271C62.4983 113.47 62.3347 112.855 62.0076 112.425C61.6804 111.991 61.2117 111.773 60.6013 111.773C59.991 111.773 59.5198 111.991 59.1877 112.425C58.8606 112.855 58.697 113.47 58.697 114.271C58.697 115.072 58.8606 115.689 59.1877 116.124C59.5198 116.559 59.991 116.776 60.6013 116.776ZM64.6882 114.271C64.6882 115.443 64.3513 116.446 63.6775 117.281C63.0037 118.111 61.9807 118.526 60.6086 118.526C59.2366 118.526 58.2136 118.111 57.5398 117.281C56.866 116.446 56.529 115.443 56.529 114.271C56.529 113.119 56.866 112.12 57.5398 111.275C58.2136 110.431 59.2366 110.008 60.6086 110.008C61.9807 110.008 63.0037 110.431 63.6775 111.275C64.3513 112.12 64.6882 113.119 64.6882 114.271ZM70.5256 110.074C70.5647 110.074 70.5964 110.077 70.6208 110.082C70.6501 110.082 70.7112 110.084 70.804 110.089V112.228C70.6721 112.213 70.5549 112.203 70.4524 112.198C70.3498 112.193 70.2668 112.191 70.2034 112.191C69.3635 112.191 68.7996 112.464 68.5115 113.011C68.3503 113.319 68.2698 113.792 68.2698 114.432V118.248H66.1677V110.265H68.1599V111.656C68.4822 111.124 68.7629 110.76 69.0022 110.565C69.3928 110.238 69.9006 110.074 70.5256 110.074ZM75.4622 116.534C75.9504 116.534 76.363 116.351 76.6999 115.985C77.0369 115.614 77.2053 115.025 77.2053 114.22C77.2053 113.463 77.0442 112.887 76.7219 112.491C76.4045 112.096 75.9773 111.898 75.4402 111.898C74.7078 111.898 74.2024 112.242 73.9241 112.931C73.7776 113.297 73.7043 113.749 73.7043 114.286C73.7043 114.75 73.7825 115.162 73.9387 115.523C74.2219 116.197 74.7297 116.534 75.4622 116.534ZM74.9421 110.074C75.3425 110.074 75.6916 110.135 75.9895 110.257C76.4973 110.467 76.9075 110.853 77.22 111.415V110.265H79.2488V117.838C79.2488 118.868 79.0754 119.645 78.7288 120.167C78.1331 121.065 76.9905 121.515 75.301 121.515C74.2805 121.515 73.448 121.314 72.8035 120.914C72.1589 120.514 71.8025 119.916 71.7341 119.12H74.0046C74.0632 119.364 74.1584 119.54 74.2903 119.647C74.5149 119.837 74.8933 119.933 75.4255 119.933C76.1775 119.933 76.6804 119.681 76.9343 119.178C77.1003 118.856 77.1833 118.314 77.1833 117.552V117.04C76.9832 117.381 76.7683 117.638 76.5388 117.809C76.1238 118.126 75.5842 118.285 74.9202 118.285C73.8948 118.285 73.0745 117.926 72.4592 117.208C71.8489 116.485 71.5437 115.509 71.5437 114.278C71.5437 113.092 71.8391 112.096 72.4299 111.29C73.0207 110.479 73.8582 110.074 74.9421 110.074ZM85.6062 114.366C85.4744 114.449 85.3401 114.518 85.2034 114.571C85.0715 114.62 84.8884 114.667 84.654 114.71L84.1853 114.798C83.7458 114.876 83.4309 114.972 83.2405 115.084C82.9182 115.274 82.7571 115.57 82.7571 115.97C82.7571 116.327 82.8547 116.585 83.05 116.747C83.2502 116.903 83.4919 116.981 83.7751 116.981C84.2244 116.981 84.637 116.849 85.0129 116.585C85.3938 116.322 85.5915 115.841 85.6062 115.143V114.366ZM84.3391 113.392C84.7248 113.343 85.0007 113.282 85.1667 113.209C85.4646 113.082 85.6135 112.884 85.6135 112.616C85.6135 112.289 85.4988 112.064 85.2693 111.942C85.0447 111.815 84.7126 111.751 84.2732 111.751C83.78 111.751 83.4309 111.874 83.2258 112.118C83.0793 112.298 82.9817 112.542 82.9329 112.85H80.9187C80.9626 112.152 81.158 111.578 81.5046 111.129C82.0564 110.426 83.0037 110.074 84.3464 110.074C85.2205 110.074 85.9968 110.248 86.6755 110.594C87.3542 110.941 87.6936 111.595 87.6936 112.557V116.219C87.6936 116.473 87.6985 116.781 87.7082 117.142C87.7229 117.416 87.7644 117.601 87.8328 117.699C87.9011 117.796 88.0037 117.877 88.1404 117.94V118.248H85.8699C85.8064 118.087 85.7624 117.936 85.738 117.794C85.7136 117.652 85.6941 117.491 85.6794 117.311C85.3914 117.623 85.0593 117.889 84.6833 118.109C84.2341 118.368 83.7263 118.497 83.1599 118.497C82.4373 118.497 81.8391 118.292 81.3655 117.882C80.8967 117.467 80.6623 116.881 80.6623 116.124C80.6623 115.143 81.0408 114.432 81.7976 113.993C82.2126 113.753 82.823 113.583 83.6287 113.48L84.3391 113.392ZM95.8088 110.265V115.077C95.8088 115.531 95.8625 115.873 95.97 116.102C96.1604 116.507 96.5339 116.71 97.0906 116.71C97.8035 116.71 98.2917 116.422 98.5554 115.846C98.6921 115.533 98.7605 115.121 98.7605 114.608V110.265H100.877V118.248H98.8484V117.12C98.8289 117.145 98.78 117.218 98.7019 117.34C98.6238 117.462 98.531 117.569 98.4236 117.662C98.0964 117.955 97.779 118.155 97.4714 118.263C97.1687 118.37 96.8123 118.424 96.4021 118.424C95.2205 118.424 94.4246 117.999 94.0144 117.149C93.7849 116.681 93.6702 115.99 93.6702 115.077V110.265H95.8088ZM107.323 110.074C108.148 110.074 108.822 110.292 109.344 110.726C109.871 111.156 110.135 111.871 110.135 112.872V118.248H107.996V113.392C107.996 112.972 107.94 112.65 107.828 112.425C107.623 112.015 107.232 111.81 106.656 111.81C105.948 111.81 105.462 112.11 105.198 112.711C105.062 113.028 104.993 113.434 104.993 113.927V118.248H102.913V110.279H104.927V111.444C105.196 111.034 105.45 110.738 105.689 110.558C106.119 110.235 106.663 110.074 107.323 110.074ZM59.0266 127.265H61.2678L58.3894 135.248H56.1848L53.321 127.265H55.6648L57.3274 133.153L59.0266 127.265ZM64.5344 127.265V132.077C64.5344 132.531 64.5881 132.873 64.6956 133.102C64.886 133.507 65.2595 133.71 65.8162 133.71C66.529 133.71 67.0173 133.422 67.281 132.846C67.4177 132.533 67.4861 132.121 67.4861 131.608V127.265H69.6028V135.248H67.574V134.12C67.5544 134.145 67.5056 134.218 67.4275 134.34C67.3494 134.462 67.2566 134.569 67.1492 134.662C66.822 134.955 66.5046 135.155 66.197 135.263C65.8943 135.37 65.5378 135.424 65.1277 135.424C63.946 135.424 63.1501 134.999 62.74 134.149C62.5105 133.681 62.3957 132.99 62.3957 132.077V127.265H64.5344ZM74.7737 128.773C74.2903 128.773 73.9143 128.925 73.6457 129.228C73.3821 129.53 73.2161 129.94 73.1477 130.458H76.3923C76.3582 129.906 76.1897 129.489 75.887 129.206C75.5891 128.917 75.218 128.773 74.7737 128.773ZM74.7737 127.052C75.4377 127.052 76.0359 127.177 76.5681 127.426C77.1003 127.675 77.5398 128.068 77.8865 128.605C78.199 129.079 78.4016 129.628 78.4944 130.253C78.5481 130.619 78.5701 131.146 78.5603 131.835H73.0964C73.1257 132.636 73.3772 133.197 73.8508 133.52C74.1389 133.72 74.4856 133.82 74.8909 133.82C75.3206 133.82 75.6697 133.698 75.9382 133.454C76.0847 133.322 76.2141 133.139 76.3264 132.904H78.4578C78.404 133.378 78.1575 133.859 77.718 134.347C77.0344 135.124 76.0774 135.512 74.8469 135.512C73.8313 135.512 72.9353 135.185 72.1589 134.53C71.3826 133.876 70.9944 132.812 70.9944 131.337C70.9944 129.955 71.3435 128.896 72.0417 128.158C72.7449 127.421 73.6555 127.052 74.7737 127.052ZM82.1052 135.248H80.0178V124.452H82.1052V135.248ZM83.3284 128.825V127.338H84.4416V125.111H86.5071V127.338H87.8035V128.825H86.5071V133.043C86.5071 133.371 86.5486 133.576 86.6316 133.659C86.7146 133.737 86.9685 133.776 87.3933 133.776C87.4568 133.776 87.5227 133.776 87.5911 133.776C87.6643 133.771 87.7351 133.766 87.8035 133.761V135.321L86.8147 135.358C85.8284 135.392 85.1545 135.221 84.7932 134.845C84.5588 134.606 84.4416 134.237 84.4416 133.739V128.825H83.3284ZM92.7253 133.776C93.3357 133.776 93.8044 133.559 94.1316 133.124C94.4587 132.689 94.6223 132.072 94.6223 131.271C94.6223 130.47 94.4587 129.855 94.1316 129.425C93.8044 128.991 93.3357 128.773 92.7253 128.773C92.115 128.773 91.6438 128.991 91.3118 129.425C90.9846 129.855 90.821 130.47 90.821 131.271C90.821 132.072 90.9846 132.689 91.3118 133.124C91.6438 133.559 92.115 133.776 92.7253 133.776ZM96.8123 131.271C96.8123 132.443 96.4753 133.446 95.8015 134.281C95.1277 135.111 94.1047 135.526 92.7327 135.526C91.3606 135.526 90.3376 135.111 89.6638 134.281C88.99 133.446 88.6531 132.443 88.6531 131.271C88.6531 130.119 88.99 129.12 89.6638 128.275C90.3376 127.431 91.3606 127.008 92.7327 127.008C94.1047 127.008 95.1277 127.431 95.8015 128.275C96.4753 129.12 96.8123 130.119 96.8123 131.271Z" fill="#E6EAF1"/>
</svg>
