<svg width="150" height="150" viewBox="0 0 150 150" fill="none" xmlns="http://www.w3.org/2000/svg">
<rect width="150" height="150" rx="10" fill="#257B58"/>
<path d="M77.6594 18.085C95.8644 18.1054 110.617 32.8586 110.638 51.0637C110.638 69.2779 95.8736 84.0424 77.6594 84.0424C59.4452 84.0424 44.6807 69.2779 44.6807 51.0637C44.6807 32.8495 59.4452 18.085 77.6594 18.085ZM94.9078 39.3117C93.4763 37.8808 91.1566 37.8808 89.7257 39.3117L74.4023 54.6298L67.6463 46.5447L67.3293 46.2104C65.9971 44.9692 63.9181 44.8853 62.4846 46.0831C60.9321 47.381 60.7256 49.6921 62.023 51.2446L73.9223 65.4804L94.9083 44.4945L95.2129 44.1489C96.3304 42.7114 96.2292 40.6329 94.9083 39.3119L94.9078 39.3117Z" fill="#E6EAF1"/>
<path d="M24.3457 105.888H26.5332L23.0947 115.964H21.1055L17.7012 105.888H19.9502L22.1377 113.537L24.3457 105.888ZM31.7354 112.341C31.6123 112.418 31.487 112.482 31.3594 112.532C31.2363 112.578 31.0654 112.621 30.8467 112.662L30.4092 112.744C29.999 112.817 29.7051 112.906 29.5273 113.011C29.2266 113.188 29.0762 113.464 29.0762 113.838C29.0762 114.171 29.1673 114.412 29.3496 114.562C29.5365 114.708 29.762 114.781 30.0264 114.781C30.4456 114.781 30.8307 114.658 31.1816 114.412C31.5371 114.166 31.7217 113.717 31.7354 113.065V112.341ZM30.5527 111.432C30.9128 111.386 31.1702 111.329 31.3252 111.261C31.6032 111.142 31.7422 110.958 31.7422 110.707C31.7422 110.402 31.6351 110.192 31.4209 110.078C31.2113 109.96 30.9014 109.9 30.4912 109.9C30.0309 109.9 29.7051 110.014 29.5137 110.242C29.377 110.411 29.2858 110.639 29.2402 110.926H27.3604C27.4014 110.274 27.5837 109.739 27.9072 109.319C28.4222 108.663 29.3063 108.335 30.5596 108.335C31.3753 108.335 32.0999 108.497 32.7334 108.82C33.3669 109.144 33.6836 109.755 33.6836 110.652V114.07C33.6836 114.307 33.6882 114.594 33.6973 114.932C33.7109 115.187 33.7497 115.36 33.8135 115.451C33.8773 115.542 33.973 115.618 34.1006 115.677V115.964H31.9814C31.9222 115.813 31.8812 115.672 31.8584 115.54C31.8356 115.408 31.8174 115.257 31.8037 115.089C31.5348 115.381 31.2249 115.629 30.874 115.834C30.4548 116.076 29.9808 116.196 29.4521 116.196C28.7777 116.196 28.2194 116.005 27.7773 115.622C27.3398 115.235 27.1211 114.688 27.1211 113.981C27.1211 113.065 27.4743 112.402 28.1807 111.992C28.568 111.769 29.1377 111.609 29.8896 111.514L30.5527 111.432ZM37.4092 115.964H35.4609V105.888H37.4092V115.964ZM41.3193 107.624H39.3438V105.826H41.3193V107.624ZM39.3438 108.513H41.3193V115.964H39.3438V108.513ZM45.9609 108.335C46.4121 108.335 46.8132 108.435 47.1641 108.636C47.515 108.832 47.7998 109.105 48.0186 109.456V105.901H49.9941V115.964H48.1006V114.932C47.8226 115.374 47.5059 115.695 47.1504 115.896C46.7949 116.096 46.3529 116.196 45.8242 116.196C44.9538 116.196 44.2201 115.845 43.623 115.144C43.0306 114.437 42.7344 113.533 42.7344 112.43C42.7344 111.158 43.026 110.158 43.6094 109.429C44.1973 108.7 44.9811 108.335 45.9609 108.335ZM46.3848 114.556C46.9362 114.556 47.3555 114.351 47.6426 113.94C47.9297 113.53 48.0732 112.999 48.0732 112.348C48.0732 111.436 47.8431 110.785 47.3828 110.393C47.1003 110.156 46.7721 110.037 46.3984 110.037C45.8288 110.037 45.4095 110.254 45.1406 110.687C44.8763 111.115 44.7441 111.648 44.7441 112.286C44.7441 112.974 44.8786 113.526 45.1475 113.94C45.4209 114.351 45.8333 114.556 46.3848 114.556ZM55.8799 112.341C55.7568 112.418 55.6315 112.482 55.5039 112.532C55.3809 112.578 55.21 112.621 54.9912 112.662L54.5537 112.744C54.1436 112.817 53.8496 112.906 53.6719 113.011C53.3711 113.188 53.2207 113.464 53.2207 113.838C53.2207 114.171 53.3118 114.412 53.4941 114.562C53.681 114.708 53.9066 114.781 54.1709 114.781C54.5902 114.781 54.9753 114.658 55.3262 114.412C55.6816 114.166 55.8662 113.717 55.8799 113.065V112.341ZM54.6973 111.432C55.0573 111.386 55.3148 111.329 55.4697 111.261C55.7477 111.142 55.8867 110.958 55.8867 110.707C55.8867 110.402 55.7796 110.192 55.5654 110.078C55.3558 109.96 55.0459 109.9 54.6357 109.9C54.1755 109.9 53.8496 110.014 53.6582 110.242C53.5215 110.411 53.4303 110.639 53.3848 110.926H51.5049C51.5459 110.274 51.7282 109.739 52.0518 109.319C52.5667 108.663 53.4508 108.335 54.7041 108.335C55.5199 108.335 56.2445 108.497 56.8779 108.82C57.5114 109.144 57.8281 109.755 57.8281 110.652V114.07C57.8281 114.307 57.8327 114.594 57.8418 114.932C57.8555 115.187 57.8942 115.36 57.958 115.451C58.0218 115.542 58.1175 115.618 58.2451 115.677V115.964H56.126C56.0667 115.813 56.0257 115.672 56.0029 115.54C55.9801 115.408 55.9619 115.257 55.9482 115.089C55.6794 115.381 55.3695 115.629 55.0186 115.834C54.5993 116.076 54.1253 116.196 53.5967 116.196C52.9222 116.196 52.3639 116.005 51.9219 115.622C51.4844 115.235 51.2656 114.688 51.2656 113.981C51.2656 113.065 51.6188 112.402 52.3252 111.992C52.7126 111.769 53.2822 111.609 54.0342 111.514L54.6973 111.432ZM64.0146 111.186C63.9782 110.908 63.8848 110.657 63.7344 110.434C63.5156 110.133 63.1761 109.982 62.7158 109.982C62.0596 109.982 61.6107 110.308 61.3691 110.96C61.2415 111.306 61.1777 111.767 61.1777 112.341C61.1777 112.888 61.2415 113.327 61.3691 113.66C61.6016 114.28 62.0391 114.59 62.6816 114.59C63.1374 114.59 63.4609 114.467 63.6523 114.221C63.8438 113.975 63.96 113.656 64.001 113.264H65.9902C65.9447 113.856 65.7305 114.417 65.3477 114.945C64.737 115.798 63.8324 116.224 62.6338 116.224C61.4352 116.224 60.5534 115.868 59.9883 115.157C59.4232 114.446 59.1406 113.523 59.1406 112.389C59.1406 111.108 59.4528 110.112 60.0771 109.401C60.7015 108.69 61.5628 108.335 62.6611 108.335C63.5954 108.335 64.3587 108.545 64.9512 108.964C65.5482 109.383 65.9014 110.124 66.0107 111.186H64.0146ZM69.3604 107.624H67.3848V105.826H69.3604V107.624ZM67.3848 108.513H69.3604V115.964H67.3848V108.513ZM74.5967 114.59C75.1663 114.59 75.6038 114.387 75.9092 113.981C76.2145 113.576 76.3672 112.999 76.3672 112.252C76.3672 111.505 76.2145 110.93 75.9092 110.529C75.6038 110.124 75.1663 109.921 74.5967 109.921C74.027 109.921 73.5872 110.124 73.2773 110.529C72.972 110.93 72.8193 111.505 72.8193 112.252C72.8193 112.999 72.972 113.576 73.2773 113.981C73.5872 114.387 74.027 114.59 74.5967 114.59ZM78.4111 112.252C78.4111 113.346 78.0967 114.282 77.4678 115.062C76.8389 115.836 75.8841 116.224 74.6035 116.224C73.3229 116.224 72.3682 115.836 71.7393 115.062C71.1104 114.282 70.7959 113.346 70.7959 112.252C70.7959 111.176 71.1104 110.244 71.7393 109.456C72.3682 108.668 73.3229 108.273 74.6035 108.273C75.8841 108.273 76.8389 108.668 77.4678 109.456C78.0967 110.244 78.4111 111.176 78.4111 112.252ZM76.9346 105.464L74.8564 107.508H73.4482L74.7607 105.464H76.9346ZM83.9414 108.335C84.7116 108.335 85.3405 108.538 85.8281 108.943C86.3203 109.344 86.5664 110.012 86.5664 110.946V115.964H84.5703V111.432C84.5703 111.04 84.5179 110.739 84.4131 110.529C84.2217 110.146 83.8571 109.955 83.3193 109.955C82.6585 109.955 82.2051 110.235 81.959 110.796C81.8314 111.092 81.7676 111.47 81.7676 111.931V115.964H79.8262V108.526H81.7061V109.613C81.9567 109.23 82.1937 108.955 82.417 108.786C82.818 108.485 83.3262 108.335 83.9414 108.335ZM97.4014 112.238C97.4014 111.664 97.2692 111.156 97.0049 110.714C96.7451 110.272 96.3213 110.051 95.7334 110.051C95.027 110.051 94.5417 110.386 94.2773 111.056C94.1406 111.411 94.0723 111.862 94.0723 112.409C94.0723 113.275 94.3024 113.883 94.7627 114.234C95.0361 114.439 95.3597 114.542 95.7334 114.542C96.2757 114.542 96.6882 114.332 96.9707 113.913C97.2578 113.494 97.4014 112.936 97.4014 112.238ZM96.2939 108.349C97.1644 108.349 97.9004 108.67 98.502 109.312C99.1081 109.955 99.4111 110.898 99.4111 112.143C99.4111 113.455 99.1149 114.455 98.5225 115.144C97.9346 115.832 97.1758 116.176 96.2461 116.176C95.6536 116.176 95.1615 116.028 94.7695 115.731C94.5553 115.567 94.3457 115.328 94.1406 115.014V118.896H92.2129V108.513H94.0791V109.613C94.2887 109.29 94.512 109.035 94.749 108.848C95.182 108.515 95.6969 108.349 96.2939 108.349ZM104.935 112.341C104.812 112.418 104.686 112.482 104.559 112.532C104.436 112.578 104.265 112.621 104.046 112.662L103.608 112.744C103.198 112.817 102.904 112.906 102.727 113.011C102.426 113.188 102.275 113.464 102.275 113.838C102.275 114.171 102.367 114.412 102.549 114.562C102.736 114.708 102.961 114.781 103.226 114.781C103.645 114.781 104.03 114.658 104.381 114.412C104.736 114.166 104.921 113.717 104.935 113.065V112.341ZM103.752 111.432C104.112 111.386 104.369 111.329 104.524 111.261C104.802 111.142 104.941 110.958 104.941 110.707C104.941 110.402 104.834 110.192 104.62 110.078C104.41 109.96 104.101 109.9 103.69 109.9C103.23 109.9 102.904 110.014 102.713 110.242C102.576 110.411 102.485 110.639 102.439 110.926H100.56C100.601 110.274 100.783 109.739 101.106 109.319C101.621 108.663 102.506 108.335 103.759 108.335C104.575 108.335 105.299 108.497 105.933 108.82C106.566 109.144 106.883 109.755 106.883 110.652V114.07C106.883 114.307 106.887 114.594 106.896 114.932C106.91 115.187 106.949 115.36 107.013 115.451C107.076 115.542 107.172 115.618 107.3 115.677V115.964H105.181C105.121 115.813 105.08 115.672 105.058 115.54C105.035 115.408 105.017 115.257 105.003 115.089C104.734 115.381 104.424 115.629 104.073 115.834C103.654 116.076 103.18 116.196 102.651 116.196C101.977 116.196 101.419 116.005 100.977 115.622C100.539 115.235 100.32 114.688 100.32 113.981C100.32 113.065 100.674 112.402 101.38 111.992C101.767 111.769 102.337 111.609 103.089 111.514L103.752 111.432ZM111.818 114.364C112.274 114.364 112.659 114.193 112.974 113.852C113.288 113.505 113.445 112.956 113.445 112.204C113.445 111.498 113.295 110.96 112.994 110.591C112.698 110.222 112.299 110.037 111.798 110.037C111.114 110.037 110.643 110.358 110.383 111.001C110.246 111.343 110.178 111.764 110.178 112.266C110.178 112.699 110.251 113.084 110.396 113.421C110.661 114.05 111.135 114.364 111.818 114.364ZM111.333 108.335C111.707 108.335 112.033 108.392 112.311 108.506C112.785 108.702 113.167 109.062 113.459 109.586V108.513H115.353V115.581C115.353 116.543 115.191 117.267 114.867 117.755C114.311 118.593 113.245 119.013 111.668 119.013C110.715 119.013 109.938 118.826 109.337 118.452C108.735 118.078 108.403 117.52 108.339 116.777H110.458C110.513 117.005 110.602 117.169 110.725 117.27C110.934 117.447 111.287 117.536 111.784 117.536C112.486 117.536 112.955 117.301 113.192 116.832C113.347 116.531 113.425 116.025 113.425 115.314V114.836C113.238 115.155 113.037 115.394 112.823 115.554C112.436 115.85 111.932 115.998 111.312 115.998C110.355 115.998 109.59 115.663 109.016 114.993C108.446 114.319 108.161 113.407 108.161 112.259C108.161 111.151 108.437 110.222 108.988 109.47C109.54 108.713 110.321 108.335 111.333 108.335ZM120.521 114.59C121.09 114.59 121.528 114.387 121.833 113.981C122.138 113.576 122.291 112.999 122.291 112.252C122.291 111.505 122.138 110.93 121.833 110.529C121.528 110.124 121.09 109.921 120.521 109.921C119.951 109.921 119.511 110.124 119.201 110.529C118.896 110.93 118.743 111.505 118.743 112.252C118.743 112.999 118.896 113.576 119.201 113.981C119.511 114.387 119.951 114.59 120.521 114.59ZM124.335 112.252C124.335 113.346 124.021 114.282 123.392 115.062C122.763 115.836 121.808 116.224 120.527 116.224C119.247 116.224 118.292 115.836 117.663 115.062C117.034 114.282 116.72 113.346 116.72 112.252C116.72 111.176 117.034 110.244 117.663 109.456C118.292 108.668 119.247 108.273 120.527 108.273C121.808 108.273 122.763 108.668 123.392 109.456C124.021 110.244 124.335 111.176 124.335 112.252ZM127.254 113.585C127.295 113.931 127.384 114.177 127.521 114.323C127.762 114.583 128.209 114.713 128.86 114.713C129.243 114.713 129.546 114.656 129.77 114.542C129.997 114.428 130.111 114.257 130.111 114.029C130.111 113.811 130.02 113.644 129.838 113.53C129.656 113.416 128.979 113.22 127.808 112.942C126.965 112.733 126.37 112.471 126.023 112.156C125.677 111.846 125.504 111.4 125.504 110.816C125.504 110.128 125.773 109.538 126.311 109.046C126.853 108.549 127.614 108.301 128.594 108.301C129.523 108.301 130.28 108.488 130.863 108.861C131.451 109.23 131.788 109.871 131.875 110.782H129.927C129.899 110.532 129.829 110.333 129.715 110.188C129.501 109.923 129.136 109.791 128.621 109.791C128.197 109.791 127.894 109.857 127.712 109.989C127.534 110.121 127.445 110.276 127.445 110.454C127.445 110.677 127.541 110.839 127.732 110.939C127.924 111.044 128.601 111.224 129.763 111.479C130.537 111.662 131.118 111.938 131.506 112.307C131.889 112.68 132.08 113.147 132.08 113.708C132.08 114.446 131.804 115.05 131.253 115.52C130.706 115.984 129.858 116.217 128.71 116.217C127.539 116.217 126.673 115.971 126.112 115.479C125.556 114.982 125.278 114.351 125.278 113.585H127.254ZM29.6299 123.624H27.6543V121.826H29.6299V123.624ZM27.6543 124.513H29.6299V131.964H27.6543V124.513ZM35.6523 124.335C36.4225 124.335 37.0514 124.538 37.5391 124.943C38.0312 125.344 38.2773 126.012 38.2773 126.946V131.964H36.2812V127.432C36.2812 127.04 36.2288 126.739 36.124 126.529C35.9326 126.146 35.568 125.955 35.0303 125.955C34.3695 125.955 33.916 126.235 33.6699 126.796C33.5423 127.092 33.4785 127.47 33.4785 127.931V131.964H31.5371V124.526H33.417V125.613C33.6676 125.23 33.9046 124.955 34.1279 124.786C34.529 124.485 35.0371 124.335 35.6523 124.335ZM39.3164 125.969V124.581H40.3555V122.503H42.2832V124.581H43.4932V125.969H42.2832V129.906C42.2832 130.212 42.3219 130.403 42.3994 130.48C42.4769 130.553 42.7139 130.59 43.1104 130.59C43.1696 130.59 43.2311 130.59 43.2949 130.59C43.3633 130.585 43.4294 130.581 43.4932 130.576V132.032L42.5703 132.066C41.6497 132.098 41.0208 131.939 40.6836 131.588C40.4648 131.365 40.3555 131.021 40.3555 130.556V125.969H39.3164ZM47.6836 125.921C47.2324 125.921 46.8815 126.062 46.6309 126.345C46.3848 126.627 46.2298 127.01 46.166 127.493H49.1943C49.1624 126.978 49.0052 126.589 48.7227 126.324C48.4447 126.055 48.0983 125.921 47.6836 125.921ZM47.6836 124.314C48.3034 124.314 48.8617 124.431 49.3584 124.663C49.8551 124.896 50.2653 125.262 50.5889 125.764C50.8805 126.206 51.0697 126.718 51.1562 127.302C51.2064 127.644 51.2269 128.136 51.2178 128.778H46.1182C46.1455 129.526 46.3802 130.05 46.8223 130.351C47.0911 130.537 47.4147 130.631 47.793 130.631C48.194 130.631 48.5199 130.517 48.7705 130.289C48.9072 130.166 49.028 129.995 49.1328 129.776H51.1221C51.0719 130.218 50.8418 130.667 50.4316 131.123C49.7936 131.848 48.9004 132.21 47.752 132.21C46.804 132.21 45.9678 131.905 45.2432 131.294C44.5186 130.683 44.1562 129.69 44.1562 128.313C44.1562 127.024 44.4821 126.035 45.1338 125.347C45.79 124.659 46.64 124.314 47.6836 124.314ZM56.584 124.335C56.6204 124.335 56.6501 124.337 56.6729 124.342C56.7002 124.342 56.7572 124.344 56.8438 124.349V126.345C56.7207 126.331 56.6113 126.322 56.5156 126.317C56.4199 126.313 56.3424 126.311 56.2832 126.311C55.4993 126.311 54.973 126.566 54.7041 127.076C54.5537 127.363 54.4785 127.805 54.4785 128.402V131.964H52.5166V124.513H54.376V125.812C54.6768 125.315 54.9388 124.975 55.1621 124.793C55.5267 124.488 56.0007 124.335 56.584 124.335ZM62.0186 124.349C62.9984 124.349 63.764 124.702 64.3154 125.408C64.8714 126.115 65.1494 127.026 65.1494 128.143C65.1494 129.3 64.876 130.259 64.3291 131.021C63.7822 131.782 63.0189 132.162 62.0391 132.162C61.4238 132.162 60.9294 132.039 60.5557 131.793C60.3324 131.647 60.0908 131.392 59.8311 131.027V131.964H57.9238V121.901H59.8652V125.483C60.1113 125.137 60.3825 124.873 60.6787 124.69C61.0296 124.463 61.4762 124.349 62.0186 124.349ZM61.5195 130.556C62.0208 130.556 62.4105 130.353 62.6885 129.947C62.9665 129.542 63.1055 129.008 63.1055 128.348C63.1055 127.819 63.0371 127.382 62.9004 127.035C62.6406 126.379 62.1621 126.051 61.4648 126.051C60.7585 126.051 60.2731 126.372 60.0088 127.015C59.8721 127.356 59.8037 127.799 59.8037 128.341C59.8037 128.979 59.945 129.507 60.2275 129.927C60.5101 130.346 60.9408 130.556 61.5195 130.556ZM70.6592 128.341C70.5361 128.418 70.4108 128.482 70.2832 128.532C70.1602 128.578 69.9893 128.621 69.7705 128.662L69.333 128.744C68.9229 128.817 68.6289 128.906 68.4512 129.011C68.1504 129.188 68 129.464 68 129.838C68 130.171 68.0911 130.412 68.2734 130.562C68.4603 130.708 68.6859 130.781 68.9502 130.781C69.3695 130.781 69.7546 130.658 70.1055 130.412C70.4609 130.166 70.6455 129.717 70.6592 129.065V128.341ZM69.4766 127.432C69.8366 127.386 70.0941 127.329 70.249 127.261C70.527 127.142 70.666 126.958 70.666 126.707C70.666 126.402 70.5589 126.192 70.3447 126.078C70.1351 125.96 69.8252 125.9 69.415 125.9C68.9548 125.9 68.6289 126.014 68.4375 126.242C68.3008 126.411 68.2096 126.639 68.1641 126.926H66.2842C66.3252 126.274 66.5075 125.739 66.8311 125.319C67.346 124.663 68.2301 124.335 69.4834 124.335C70.2992 124.335 71.0238 124.497 71.6572 124.82C72.2907 125.144 72.6074 125.755 72.6074 126.652V130.07C72.6074 130.307 72.612 130.594 72.6211 130.932C72.6348 131.187 72.6735 131.36 72.7373 131.451C72.8011 131.542 72.8968 131.618 73.0244 131.677V131.964H70.9053C70.846 131.813 70.805 131.672 70.7822 131.54C70.7594 131.408 70.7412 131.257 70.7275 131.089C70.4587 131.381 70.1488 131.629 69.7979 131.834C69.3786 132.076 68.9046 132.196 68.376 132.196C67.7015 132.196 67.1432 132.005 66.7012 131.622C66.2637 131.235 66.0449 130.688 66.0449 129.981C66.0449 129.065 66.3981 128.402 67.1045 127.992C67.4919 127.769 68.0615 127.609 68.8135 127.514L69.4766 127.432ZM78.4727 124.335C79.2428 124.335 79.8717 124.538 80.3594 124.943C80.8516 125.344 81.0977 126.012 81.0977 126.946V131.964H79.1016V127.432C79.1016 127.04 79.0492 126.739 78.9443 126.529C78.7529 126.146 78.3883 125.955 77.8506 125.955C77.1898 125.955 76.7363 126.235 76.4902 126.796C76.3626 127.092 76.2988 127.47 76.2988 127.931V131.964H74.3574V124.526H76.2373V125.613C76.488 125.23 76.7249 124.955 76.9482 124.786C77.3493 124.485 77.8574 124.335 78.4727 124.335ZM87.3525 127.186C87.3161 126.908 87.2227 126.657 87.0723 126.434C86.8535 126.133 86.514 125.982 86.0537 125.982C85.3975 125.982 84.9486 126.308 84.707 126.96C84.5794 127.306 84.5156 127.767 84.5156 128.341C84.5156 128.888 84.5794 129.327 84.707 129.66C84.9395 130.28 85.377 130.59 86.0195 130.59C86.4753 130.59 86.7988 130.467 86.9902 130.221C87.1816 129.975 87.2979 129.656 87.3389 129.264H89.3281C89.2826 129.856 89.0684 130.417 88.6855 130.945C88.0749 131.798 87.1702 132.224 85.9717 132.224C84.7731 132.224 83.8913 131.868 83.3262 131.157C82.7611 130.446 82.4785 129.523 82.4785 128.389C82.4785 127.108 82.7907 126.112 83.415 125.401C84.0394 124.69 84.9007 124.335 85.999 124.335C86.9333 124.335 87.6966 124.545 88.2891 124.964C88.8861 125.383 89.2393 126.124 89.3486 127.186H87.3525ZM94.8037 128.341C94.6807 128.418 94.5553 128.482 94.4277 128.532C94.3047 128.578 94.1338 128.621 93.915 128.662L93.4775 128.744C93.0674 128.817 92.7734 128.906 92.5957 129.011C92.2949 129.188 92.1445 129.464 92.1445 129.838C92.1445 130.171 92.2357 130.412 92.418 130.562C92.6048 130.708 92.8304 130.781 93.0947 130.781C93.514 130.781 93.8991 130.658 94.25 130.412C94.6055 130.166 94.79 129.717 94.8037 129.065V128.341ZM93.6211 127.432C93.9811 127.386 94.2386 127.329 94.3936 127.261C94.6715 127.142 94.8105 126.958 94.8105 126.707C94.8105 126.402 94.7035 126.192 94.4893 126.078C94.2796 125.96 93.9697 125.9 93.5596 125.9C93.0993 125.9 92.7734 126.014 92.582 126.242C92.4453 126.411 92.3542 126.639 92.3086 126.926H90.4287C90.4697 126.274 90.652 125.739 90.9756 125.319C91.4906 124.663 92.3747 124.335 93.6279 124.335C94.4437 124.335 95.1683 124.497 95.8018 124.82C96.4352 125.144 96.752 125.755 96.752 126.652V130.07C96.752 130.307 96.7565 130.594 96.7656 130.932C96.7793 131.187 96.818 131.36 96.8818 131.451C96.9456 131.542 97.0413 131.618 97.1689 131.677V131.964H95.0498C94.9906 131.813 94.9495 131.672 94.9268 131.54C94.904 131.408 94.8857 131.257 94.8721 131.089C94.6032 131.381 94.2933 131.629 93.9424 131.834C93.5231 132.076 93.0492 132.196 92.5205 132.196C91.846 132.196 91.2878 132.005 90.8457 131.622C90.4082 131.235 90.1895 130.688 90.1895 129.981C90.1895 129.065 90.5426 128.402 91.249 127.992C91.6364 127.769 92.2061 127.609 92.958 127.514L93.6211 127.432ZM102.535 124.335C102.572 124.335 102.601 124.337 102.624 124.342C102.651 124.342 102.708 124.344 102.795 124.349V126.345C102.672 126.331 102.562 126.322 102.467 126.317C102.371 126.313 102.294 126.311 102.234 126.311C101.451 126.311 100.924 126.566 100.655 127.076C100.505 127.363 100.43 127.805 100.43 128.402V131.964H98.4678V124.513H100.327V125.812C100.628 125.315 100.89 124.975 101.113 124.793C101.478 124.488 101.952 124.335 102.535 124.335ZM105.946 123.624H103.971V121.826H105.946V123.624ZM103.971 124.513H105.946V131.964H103.971V124.513ZM111.183 130.59C111.752 130.59 112.19 130.387 112.495 129.981C112.8 129.576 112.953 128.999 112.953 128.252C112.953 127.505 112.8 126.93 112.495 126.529C112.19 126.124 111.752 125.921 111.183 125.921C110.613 125.921 110.173 126.124 109.863 126.529C109.558 126.93 109.405 127.505 109.405 128.252C109.405 128.999 109.558 129.576 109.863 129.981C110.173 130.387 110.613 130.59 111.183 130.59ZM114.997 128.252C114.997 129.346 114.683 130.282 114.054 131.062C113.425 131.836 112.47 132.224 111.189 132.224C109.909 132.224 108.954 131.836 108.325 131.062C107.696 130.282 107.382 129.346 107.382 128.252C107.382 127.176 107.696 126.244 108.325 125.456C108.954 124.668 109.909 124.273 111.189 124.273C112.47 124.273 113.425 124.668 114.054 125.456C114.683 126.244 114.997 127.176 114.997 128.252ZM117.916 129.585C117.957 129.931 118.046 130.177 118.183 130.323C118.424 130.583 118.871 130.713 119.522 130.713C119.905 130.713 120.208 130.656 120.432 130.542C120.66 130.428 120.773 130.257 120.773 130.029C120.773 129.811 120.682 129.644 120.5 129.53C120.318 129.416 119.641 129.22 118.47 128.942C117.627 128.733 117.032 128.471 116.686 128.156C116.339 127.846 116.166 127.4 116.166 126.816C116.166 126.128 116.435 125.538 116.973 125.046C117.515 124.549 118.276 124.301 119.256 124.301C120.186 124.301 120.942 124.488 121.525 124.861C122.113 125.23 122.451 125.871 122.537 126.782H120.589C120.562 126.532 120.491 126.333 120.377 126.188C120.163 125.923 119.798 125.791 119.283 125.791C118.859 125.791 118.556 125.857 118.374 125.989C118.196 126.121 118.107 126.276 118.107 126.454C118.107 126.677 118.203 126.839 118.395 126.939C118.586 127.044 119.263 127.224 120.425 127.479C121.2 127.662 121.781 127.938 122.168 128.307C122.551 128.68 122.742 129.147 122.742 129.708C122.742 130.446 122.466 131.05 121.915 131.52C121.368 131.984 120.521 132.217 119.372 132.217C118.201 132.217 117.335 131.971 116.774 131.479C116.218 130.982 115.94 130.351 115.94 129.585H117.916Z" fill="#E6EAF1"/>
</svg>
