<svg width="150" height="150" viewBox="0 0 150 150" fill="none" xmlns="http://www.w3.org/2000/svg">
<rect width="150" height="150" rx="10" fill="#257B58"/>
<path fill-rule="evenodd" clip-rule="evenodd" d="M52.9749 23.4205C54.3721 21.9809 56.6374 21.9809 58.0347 23.4205C59.4319 24.8601 59.4319 27.1941 58.0347 28.6336L48.2721 38.6921H108.124C110.1 38.6921 111.702 40.3425 111.702 42.3784C111.702 44.4142 110.1 46.0646 108.124 46.0646H42.562C38.2941 46.0646 36.1568 40.7482 39.1746 37.639L52.9749 23.4205Z" fill="#E6EAF1"/>
<path fill-rule="evenodd" clip-rule="evenodd" d="M95.961 74.4526C94.5638 75.8922 92.2984 75.8922 90.9012 74.4526C89.504 73.0131 89.504 70.6791 90.9012 69.2395L100.664 59.181L40.8117 59.181C38.8357 59.181 37.2339 57.5306 37.2339 55.4948C37.2339 53.4589 38.8357 51.8085 40.8117 51.8085L106.374 51.8085C110.642 51.8085 112.779 57.1249 109.761 60.2342L95.961 74.4526Z" fill="#E6EAF1"/>
<path d="M70.4551 101.204V103.116H67.2251V112H64.9546V103.116H61.71V101.204H70.4551ZM73.6924 104.017V108.829C73.6924 109.283 73.7461 109.625 73.8535 109.854C74.044 110.259 74.4175 110.462 74.9741 110.462C75.687 110.462 76.1753 110.174 76.439 109.598C76.5757 109.285 76.6441 108.873 76.6441 108.36V104.017H78.7607V112H76.7319V110.872C76.7124 110.896 76.6636 110.97 76.5855 111.092C76.5073 111.214 76.4146 111.321 76.3071 111.414C75.98 111.707 75.6626 111.907 75.355 112.015C75.0523 112.122 74.6958 112.176 74.2857 112.176C73.104 112.176 72.3081 111.751 71.898 110.901C71.6685 110.433 71.5537 109.742 71.5537 108.829V104.017H73.6924ZM82.4082 109.451C82.4522 109.822 82.5474 110.086 82.6939 110.242C82.9526 110.521 83.4312 110.66 84.1294 110.66C84.5396 110.66 84.8643 110.599 85.1035 110.477C85.3477 110.354 85.4697 110.171 85.4697 109.927C85.4697 109.693 85.3721 109.515 85.1768 109.393C84.9815 109.271 84.2564 109.061 83.0015 108.763C82.0982 108.538 81.4609 108.257 81.0899 107.92C80.7188 107.588 80.5332 107.11 80.5332 106.485C80.5332 105.748 80.8213 105.115 81.3975 104.588C81.9785 104.056 82.794 103.79 83.8438 103.79C84.8399 103.79 85.6504 103.99 86.2754 104.39C86.9053 104.786 87.2666 105.472 87.3594 106.448H85.272C85.2427 106.18 85.167 105.967 85.0449 105.811C84.8154 105.528 84.4248 105.386 83.8731 105.386C83.419 105.386 83.0942 105.457 82.8989 105.599C82.7085 105.74 82.6133 105.906 82.6133 106.097C82.6133 106.336 82.7158 106.509 82.9209 106.617C83.126 106.729 83.8511 106.922 85.0962 107.195C85.9263 107.391 86.5488 107.686 86.9639 108.082C87.374 108.482 87.5791 108.982 87.5791 109.583C87.5791 110.374 87.2837 111.021 86.6929 111.524C86.1069 112.022 85.1987 112.271 83.9683 112.271C82.7134 112.271 81.7857 112.007 81.1851 111.48C80.5894 110.948 80.2915 110.271 80.2915 109.451H82.4082ZM24.481 123.577V122.09H25.5942V119.863H27.6597V122.09H28.9561V123.577H27.6597V127.795C27.6597 128.123 27.7012 128.328 27.7842 128.411C27.8672 128.489 28.1211 128.528 28.5459 128.528C28.6094 128.528 28.6753 128.528 28.7437 128.528C28.8169 128.523 28.8877 128.518 28.9561 128.513V130.073L27.9673 130.11C26.981 130.144 26.3071 129.973 25.9458 129.597C25.7114 129.358 25.5942 128.989 25.5942 128.491V123.577H24.481ZM34.6323 121.826C34.6714 121.826 34.7031 121.829 34.7275 121.833C34.7568 121.833 34.8179 121.836 34.9107 121.841V123.979C34.7788 123.965 34.6616 123.955 34.5591 123.95C34.4566 123.945 34.3735 123.943 34.3101 123.943C33.4702 123.943 32.9063 124.216 32.6182 124.763C32.457 125.071 32.3765 125.544 32.3765 126.184V130H30.2744V122.017H32.2666V123.408C32.5889 122.876 32.8696 122.512 33.1089 122.317C33.4995 121.99 34.0073 121.826 34.6323 121.826ZM40.543 126.118C40.4111 126.201 40.2769 126.27 40.1401 126.323C40.0083 126.372 39.8252 126.418 39.5908 126.462L39.1221 126.55C38.6826 126.628 38.3677 126.724 38.1773 126.836C37.855 127.026 37.6939 127.322 37.6939 127.722C37.6939 128.079 37.7915 128.337 37.9868 128.499C38.187 128.655 38.4287 128.733 38.7119 128.733C39.1611 128.733 39.5737 128.601 39.9497 128.337C40.3306 128.074 40.5283 127.593 40.543 126.895V126.118ZM39.2759 125.144C39.6616 125.095 39.9375 125.034 40.1035 124.961C40.4014 124.834 40.5503 124.636 40.5503 124.368C40.5503 124.041 40.4356 123.816 40.2061 123.694C39.9815 123.567 39.6494 123.503 39.21 123.503C38.7168 123.503 38.3677 123.625 38.1626 123.87C38.0161 124.05 37.9185 124.294 37.8696 124.602H35.8555C35.8994 123.904 36.0947 123.33 36.4414 122.881C36.9932 122.178 37.9404 121.826 39.2832 121.826C40.1572 121.826 40.9336 122 41.6123 122.346C42.291 122.693 42.6304 123.347 42.6304 124.309V127.971C42.6304 128.225 42.6353 128.533 42.645 128.894C42.6597 129.167 42.7012 129.353 42.7695 129.451C42.8379 129.548 42.9404 129.629 43.0772 129.692V130H40.8066C40.7432 129.839 40.6992 129.688 40.6748 129.546C40.6504 129.404 40.6309 129.243 40.6162 129.062C40.3281 129.375 39.9961 129.641 39.6201 129.861C39.1709 130.12 38.6631 130.249 38.0967 130.249C37.374 130.249 36.7759 130.044 36.3023 129.634C35.8335 129.219 35.5991 128.633 35.5991 127.876C35.5991 126.895 35.9775 126.184 36.7344 125.745C37.1494 125.505 37.7598 125.334 38.5654 125.232L39.2759 125.144ZM48.9146 121.826C49.7398 121.826 50.4136 122.043 50.936 122.478C51.4634 122.908 51.7271 123.623 51.7271 124.624V130H49.5884V125.144C49.5884 124.724 49.5322 124.402 49.4199 124.177C49.2149 123.767 48.8242 123.562 48.2481 123.562C47.54 123.562 47.0542 123.862 46.7905 124.463C46.6538 124.78 46.5855 125.186 46.5855 125.679V130H44.5054V122.031H46.5195V123.196C46.7881 122.786 47.042 122.49 47.2813 122.31C47.7109 121.987 48.2554 121.826 48.9146 121.826ZM55.2866 127.451C55.3306 127.822 55.4258 128.086 55.5723 128.242C55.8311 128.521 56.3096 128.66 57.0078 128.66C57.418 128.66 57.7427 128.599 57.9819 128.477C58.2261 128.354 58.3482 128.171 58.3482 127.927C58.3482 127.693 58.2505 127.515 58.0552 127.393C57.8599 127.271 57.1348 127.061 55.8799 126.763C54.9766 126.538 54.3394 126.257 53.9683 125.92C53.5972 125.588 53.4116 125.11 53.4116 124.485C53.4116 123.748 53.6997 123.115 54.2759 122.588C54.8569 122.056 55.6724 121.79 56.7222 121.79C57.7183 121.79 58.5288 121.99 59.1538 122.39C59.7837 122.786 60.145 123.472 60.2378 124.448H58.1504C58.1211 124.18 58.0454 123.967 57.9233 123.811C57.6939 123.528 57.3032 123.386 56.7515 123.386C56.2974 123.386 55.9727 123.457 55.7774 123.599C55.5869 123.74 55.4917 123.906 55.4917 124.097C55.4917 124.336 55.5942 124.509 55.7993 124.617C56.0044 124.729 56.7295 124.922 57.9746 125.195C58.8047 125.391 59.4273 125.686 59.8423 126.082C60.2524 126.482 60.4575 126.982 60.4575 127.583C60.4575 128.374 60.1621 129.021 59.5713 129.524C58.9854 130.022 58.0772 130.271 56.8467 130.271C55.5918 130.271 54.6641 130.007 54.0635 129.48C53.4678 128.948 53.1699 128.271 53.1699 127.451H55.2866ZM66.4121 126.118C66.2803 126.201 66.146 126.27 66.0093 126.323C65.8774 126.372 65.6943 126.418 65.46 126.462L64.9912 126.55C64.5518 126.628 64.2368 126.724 64.0464 126.836C63.7241 127.026 63.563 127.322 63.563 127.722C63.563 128.079 63.6607 128.337 63.856 128.499C64.0562 128.655 64.2979 128.733 64.5811 128.733C65.0303 128.733 65.4429 128.601 65.8189 128.337C66.1997 128.074 66.3975 127.593 66.4121 126.895V126.118ZM65.145 125.144C65.5308 125.095 65.8066 125.034 65.9727 124.961C66.2705 124.834 66.4194 124.636 66.4194 124.368C66.4194 124.041 66.3047 123.816 66.0752 123.694C65.8506 123.567 65.5186 123.503 65.0791 123.503C64.5859 123.503 64.2368 123.625 64.0317 123.87C63.8853 124.05 63.7876 124.294 63.7388 124.602H61.7246C61.7686 123.904 61.9639 123.33 62.3106 122.881C62.8623 122.178 63.8096 121.826 65.1524 121.826C66.0264 121.826 66.8027 122 67.4815 122.346C68.1602 122.693 68.4995 123.347 68.4995 124.309V127.971C68.4995 128.225 68.5044 128.533 68.5142 128.894C68.5288 129.167 68.5703 129.353 68.6387 129.451C68.707 129.548 68.8096 129.629 68.9463 129.692V130H66.6758C66.6123 129.839 66.5684 129.688 66.544 129.546C66.5195 129.404 66.5 129.243 66.4854 129.062C66.1973 129.375 65.8652 129.641 65.4893 129.861C65.04 130.12 64.5322 130.249 63.9658 130.249C63.2432 130.249 62.645 130.044 62.1714 129.634C61.7026 129.219 61.4683 128.633 61.4683 127.876C61.4683 126.895 61.8467 126.184 62.6035 125.745C63.0186 125.505 63.6289 125.334 64.4346 125.232L65.145 125.144ZM75.1279 124.88C75.0889 124.583 74.9888 124.314 74.8276 124.075C74.5933 123.752 74.2295 123.591 73.7363 123.591C73.0332 123.591 72.5523 123.94 72.2935 124.639C72.1567 125.01 72.0884 125.503 72.0884 126.118C72.0884 126.704 72.1567 127.175 72.2935 127.532C72.5425 128.196 73.0112 128.528 73.6997 128.528C74.188 128.528 74.5347 128.396 74.7398 128.132C74.9448 127.869 75.0693 127.527 75.1133 127.107H77.2446C77.1958 127.742 76.9663 128.342 76.5562 128.909C75.9019 129.822 74.9326 130.278 73.6484 130.278C72.3643 130.278 71.4194 129.897 70.814 129.136C70.2085 128.374 69.9058 127.385 69.9058 126.169C69.9058 124.797 70.2402 123.73 70.9092 122.969C71.5781 122.207 72.501 121.826 73.6777 121.826C74.6787 121.826 75.4966 122.051 76.1314 122.5C76.771 122.949 77.1494 123.743 77.2666 124.88H75.1279ZM83.4775 124.88C83.4385 124.583 83.3384 124.314 83.1773 124.075C82.9429 123.752 82.5791 123.591 82.0859 123.591C81.3828 123.591 80.9019 123.94 80.6431 124.639C80.5064 125.01 80.438 125.503 80.438 126.118C80.438 126.704 80.5064 127.175 80.6431 127.532C80.8921 128.196 81.3608 128.528 82.0493 128.528C82.5376 128.528 82.8843 128.396 83.0894 128.132C83.2944 127.869 83.419 127.527 83.4629 127.107H85.5942C85.5454 127.742 85.3159 128.342 84.9058 128.909C84.2515 129.822 83.2822 130.278 81.9981 130.278C80.7139 130.278 79.7691 129.897 79.1636 129.136C78.5581 128.374 78.2554 127.385 78.2554 126.169C78.2554 124.797 78.5899 123.73 79.2588 122.969C79.9277 122.207 80.8506 121.826 82.0274 121.826C83.0283 121.826 83.8462 122.051 84.481 122.5C85.1206 122.949 85.499 123.743 85.6162 124.88H83.4775ZM89.2051 121.064H87.0884V119.138H89.2051V121.064ZM87.0884 122.017H89.2051V130H87.0884V122.017ZM94.8154 128.528C95.4258 128.528 95.8945 128.311 96.2217 127.876C96.5488 127.441 96.7124 126.824 96.7124 126.023C96.7124 125.222 96.5488 124.607 96.2217 124.177C95.8945 123.743 95.4258 123.525 94.8154 123.525C94.2051 123.525 93.7339 123.743 93.4019 124.177C93.0747 124.607 92.9111 125.222 92.9111 126.023C92.9111 126.824 93.0747 127.441 93.4019 127.876C93.7339 128.311 94.2051 128.528 94.8154 128.528ZM98.9024 126.023C98.9024 127.195 98.5654 128.198 97.8916 129.033C97.2178 129.863 96.1948 130.278 94.8228 130.278C93.4507 130.278 92.4277 129.863 91.7539 129.033C91.0801 128.198 90.7432 127.195 90.7432 126.023C90.7432 124.871 91.0801 123.872 91.7539 123.027C92.4277 122.183 93.4507 121.76 94.8228 121.76C96.1948 121.76 97.2178 122.183 97.8916 123.027C98.5654 123.872 98.9024 124.871 98.9024 126.023ZM104.828 121.826C105.653 121.826 106.327 122.043 106.849 122.478C107.376 122.908 107.64 123.623 107.64 124.624V130H105.501V125.144C105.501 124.724 105.445 124.402 105.333 124.177C105.128 123.767 104.737 123.562 104.161 123.562C103.453 123.562 102.967 123.862 102.704 124.463C102.567 124.78 102.499 125.186 102.499 125.679V130H100.418V122.031H102.433V123.196C102.701 122.786 102.955 122.49 103.194 122.31C103.624 121.987 104.168 121.826 104.828 121.826ZM112.723 123.525C112.24 123.525 111.864 123.677 111.595 123.979C111.332 124.282 111.166 124.692 111.097 125.21H114.342C114.308 124.658 114.139 124.241 113.836 123.958C113.539 123.669 113.167 123.525 112.723 123.525ZM112.723 121.804C113.387 121.804 113.985 121.929 114.518 122.178C115.05 122.427 115.489 122.82 115.836 123.357C116.148 123.831 116.351 124.38 116.444 125.005C116.498 125.371 116.52 125.898 116.51 126.587H111.046C111.075 127.388 111.327 127.949 111.8 128.271C112.088 128.472 112.435 128.572 112.84 128.572C113.27 128.572 113.619 128.45 113.888 128.206C114.034 128.074 114.164 127.891 114.276 127.656H116.407C116.354 128.13 116.107 128.611 115.667 129.099C114.984 129.875 114.027 130.264 112.796 130.264C111.781 130.264 110.885 129.937 110.108 129.282C109.332 128.628 108.944 127.563 108.944 126.089C108.944 124.707 109.293 123.647 109.991 122.91C110.694 122.173 111.605 121.804 112.723 121.804ZM119.549 127.451C119.593 127.822 119.688 128.086 119.835 128.242C120.094 128.521 120.572 128.66 121.271 128.66C121.681 128.66 122.005 128.599 122.245 128.477C122.489 128.354 122.611 128.171 122.611 127.927C122.611 127.693 122.513 127.515 122.318 127.393C122.123 127.271 121.397 127.061 120.143 126.763C119.239 126.538 118.602 126.257 118.231 125.92C117.86 125.588 117.674 125.11 117.674 124.485C117.674 123.748 117.962 123.115 118.539 122.588C119.12 122.056 119.935 121.79 120.985 121.79C121.981 121.79 122.792 121.99 123.417 122.39C124.046 122.786 124.408 123.472 124.5 124.448H122.413C122.384 124.18 122.308 123.967 122.186 123.811C121.957 123.528 121.566 123.386 121.014 123.386C120.56 123.386 120.235 123.457 120.04 123.599C119.85 123.74 119.754 123.906 119.754 124.097C119.754 124.336 119.857 124.509 120.062 124.617C120.267 124.729 120.992 124.922 122.237 125.195C123.067 125.391 123.69 125.686 124.105 126.082C124.515 126.482 124.72 126.982 124.72 127.583C124.72 128.374 124.425 129.021 123.834 129.524C123.248 130.022 122.34 130.271 121.109 130.271C119.854 130.271 118.927 130.007 118.326 129.48C117.73 128.948 117.433 128.271 117.433 127.451H119.549Z" fill="#E6EAF1"/>
</svg>
