<svg width="150" height="150" viewBox="0 0 150 150" fill="none" xmlns="http://www.w3.org/2000/svg">
<rect width="150" height="150" rx="10" fill="#671CCA"/>
<path d="M57.1165 37.6554V30.5284C57.1165 29.6997 57.7734 29.0279 58.5838 29.0279H70.1392V21.7133C70.1392 20.8847 70.7962 20.2129 71.6066 20.2129H78.9433C79.7537 20.2129 80.4107 20.8847 80.4107 21.7133V29.0279H92.1495C92.9599 29.0279 93.6169 29.6997 93.6169 30.5284V35.5874C93.6169 36.6839 93.2554 37.7484 92.591 38.609L71.6066 65.7885H92.1495C92.9599 65.7885 93.6169 66.4602 93.6169 67.2889V74.6035C93.6169 75.4322 92.9599 76.1039 92.1495 76.1039H80.2273V83.6061C80.2273 84.4347 79.5703 85.1065 78.7599 85.1065H71.79C70.9796 85.1065 70.3227 84.4347 70.3227 83.6061V76.1039H57.8502C57.0398 76.1039 56.3828 75.4322 56.3828 74.6035V69.3347C56.3828 68.2518 56.7353 67.1997 57.3847 66.3443L78.0262 39.1558H58.5838C57.7734 39.1558 57.1165 38.4841 57.1165 37.6554Z" fill="#E6EAF1"/>
<path d="M58.7061 107.204H61.0498L57.3657 118H55.2344L51.5869 107.204H53.9966L56.3403 115.4L58.7061 107.204ZM66.6235 114.118C66.4917 114.201 66.3574 114.27 66.2207 114.323C66.0889 114.372 65.9058 114.418 65.6714 114.462L65.2026 114.55C64.7632 114.628 64.4482 114.724 64.2578 114.836C63.9356 115.026 63.7744 115.322 63.7744 115.722C63.7744 116.079 63.8721 116.337 64.0674 116.499C64.2676 116.655 64.5093 116.733 64.7925 116.733C65.2417 116.733 65.6543 116.601 66.0303 116.337C66.4111 116.074 66.6089 115.593 66.6235 114.895V114.118ZM65.3565 113.144C65.7422 113.095 66.0181 113.034 66.1841 112.961C66.4819 112.834 66.6309 112.636 66.6309 112.368C66.6309 112.041 66.5161 111.816 66.2866 111.694C66.062 111.567 65.73 111.503 65.2905 111.503C64.7974 111.503 64.4482 111.625 64.2432 111.87C64.0967 112.05 63.999 112.294 63.9502 112.602H61.936C61.98 111.904 62.1753 111.33 62.522 110.881C63.0737 110.178 64.021 109.826 65.3638 109.826C66.2378 109.826 67.0142 110 67.6929 110.346C68.3716 110.693 68.7109 111.347 68.7109 112.309V115.971C68.7109 116.225 68.7158 116.533 68.7256 116.894C68.7402 117.167 68.7817 117.353 68.8501 117.451C68.9185 117.548 69.021 117.629 69.1577 117.692V118H66.8872C66.8237 117.839 66.7798 117.688 66.7554 117.546C66.731 117.404 66.7114 117.243 66.6968 117.062C66.4087 117.375 66.0767 117.641 65.7007 117.861C65.2515 118.12 64.7437 118.249 64.1773 118.249C63.4546 118.249 62.8565 118.044 62.3828 117.634C61.9141 117.219 61.6797 116.633 61.6797 115.876C61.6797 114.895 62.0581 114.184 62.8149 113.745C63.23 113.505 63.8403 113.334 64.646 113.232L65.3565 113.144ZM72.7026 118H70.6152V107.204H72.7026V118ZM76.8921 109.064H74.7754V107.138H76.8921V109.064ZM74.7754 110.017H76.8921V118H74.7754V110.017ZM81.8652 109.826C82.3486 109.826 82.7783 109.934 83.1543 110.148C83.5303 110.358 83.8355 110.651 84.0698 111.027V107.219H86.1865V118H84.1577V116.894C83.8599 117.368 83.5205 117.712 83.1397 117.927C82.7588 118.142 82.2852 118.249 81.7188 118.249C80.7861 118.249 80 117.873 79.3604 117.121C78.7256 116.364 78.4082 115.395 78.4082 114.213C78.4082 112.851 78.7207 111.779 79.3457 110.998C79.9756 110.217 80.8154 109.826 81.8652 109.826ZM82.3193 116.491C82.9102 116.491 83.3594 116.271 83.667 115.832C83.9746 115.393 84.1284 114.824 84.1284 114.125C84.1284 113.149 83.8818 112.451 83.3887 112.031C83.0859 111.777 82.7344 111.65 82.334 111.65C81.7236 111.65 81.2744 111.882 80.9863 112.346C80.7031 112.805 80.5615 113.376 80.5615 114.06C80.5615 114.797 80.7056 115.388 80.9937 115.832C81.2866 116.271 81.7285 116.491 82.3193 116.491ZM92.4927 114.118C92.3608 114.201 92.2266 114.27 92.0899 114.323C91.958 114.372 91.7749 114.418 91.5405 114.462L91.0718 114.55C90.6323 114.628 90.3174 114.724 90.127 114.836C89.8047 115.026 89.6436 115.322 89.6436 115.722C89.6436 116.079 89.7412 116.337 89.9365 116.499C90.1367 116.655 90.3784 116.733 90.6616 116.733C91.1108 116.733 91.5234 116.601 91.8994 116.337C92.2803 116.074 92.478 115.593 92.4927 114.895V114.118ZM91.2256 113.144C91.6113 113.095 91.8872 113.034 92.0532 112.961C92.3511 112.834 92.5 112.636 92.5 112.368C92.5 112.041 92.3853 111.816 92.1558 111.694C91.9312 111.567 91.5991 111.503 91.1597 111.503C90.6665 111.503 90.3174 111.625 90.1123 111.87C89.9658 112.05 89.8682 112.294 89.8193 112.602H87.8052C87.8491 111.904 88.0444 111.33 88.3911 110.881C88.9429 110.178 89.8901 109.826 91.2329 109.826C92.1069 109.826 92.8833 110 93.562 110.346C94.2407 110.693 94.5801 111.347 94.5801 112.309V115.971C94.5801 116.225 94.585 116.533 94.5947 116.894C94.6094 117.167 94.6509 117.353 94.7192 117.451C94.7876 117.548 94.8901 117.629 95.0269 117.692V118H92.7564C92.6929 117.839 92.6489 117.688 92.6245 117.546C92.6001 117.404 92.5806 117.243 92.5659 117.062C92.2778 117.375 91.9458 117.641 91.5698 117.861C91.1206 118.12 90.6128 118.249 90.0464 118.249C89.3237 118.249 88.7256 118.044 88.252 117.634C87.7832 117.219 87.5488 116.633 87.5488 115.876C87.5488 114.895 87.9273 114.184 88.6841 113.745C89.0991 113.505 89.7095 113.334 90.5151 113.232L91.2256 113.144ZM50.1294 128.017V132.829C50.1294 133.283 50.1831 133.625 50.2905 133.854C50.481 134.259 50.8545 134.462 51.4111 134.462C52.124 134.462 52.6123 134.174 52.876 133.598C53.0127 133.285 53.0811 132.873 53.0811 132.36V128.017H55.1978V136H53.169V134.872C53.1494 134.896 53.1006 134.97 53.0225 135.092C52.9443 135.214 52.8516 135.321 52.7441 135.414C52.417 135.707 52.0996 135.907 51.792 136.015C51.4893 136.122 51.1328 136.176 50.7227 136.176C49.541 136.176 48.7451 135.751 48.335 134.901C48.1055 134.433 47.9907 133.742 47.9907 132.829V128.017H50.1294ZM61.6431 127.826C62.4683 127.826 63.1421 128.043 63.6646 128.478C64.1919 128.908 64.4556 129.623 64.4556 130.624V136H62.3169V131.144C62.3169 130.724 62.2607 130.402 62.1484 130.177C61.9434 129.767 61.5527 129.562 60.9766 129.562C60.2686 129.562 59.7827 129.862 59.5191 130.463C59.3823 130.78 59.314 131.186 59.314 131.679V136H57.2339V128.031H59.2481V129.196C59.5166 128.786 59.7705 128.49 60.0098 128.31C60.4395 127.987 60.9839 127.826 61.6431 127.826ZM69.9707 134.096L75.5444 127.116H70.1099V125.204H78.3569V127.013L72.71 134.096H78.3716V136H69.9707V134.096ZM82.8833 129.525C82.3999 129.525 82.0239 129.677 81.7554 129.979C81.4917 130.282 81.3257 130.692 81.2573 131.21H84.502C84.4678 130.658 84.2993 130.241 83.9966 129.958C83.6987 129.669 83.3276 129.525 82.8833 129.525ZM82.8833 127.804C83.5474 127.804 84.1455 127.929 84.6777 128.178C85.21 128.427 85.6494 128.82 85.9961 129.357C86.3086 129.831 86.5112 130.38 86.604 131.005C86.6577 131.371 86.6797 131.898 86.6699 132.587H81.2061C81.2354 133.388 81.4868 133.949 81.9605 134.271C82.2485 134.472 82.5952 134.572 83.0005 134.572C83.4302 134.572 83.7793 134.45 84.0479 134.206C84.1943 134.074 84.3237 133.891 84.436 133.656H86.5674C86.5137 134.13 86.2671 134.611 85.8276 135.099C85.1441 135.875 84.187 136.264 82.9566 136.264C81.9409 136.264 81.0449 135.937 80.2686 135.282C79.4922 134.628 79.104 133.563 79.104 132.089C79.104 130.707 79.4531 129.647 80.1514 128.91C80.8545 128.173 81.7651 127.804 82.8833 127.804ZM90.2149 136H88.1274V125.204H90.2149V136ZM94.3897 136H92.3023V125.204H94.3897V136ZM99.5825 129.525C99.0991 129.525 98.7232 129.677 98.4546 129.979C98.1909 130.282 98.0249 130.692 97.9566 131.21H101.201C101.167 130.658 100.999 130.241 100.696 129.958C100.398 129.669 100.027 129.525 99.5825 129.525ZM99.5825 127.804C100.247 127.804 100.845 127.929 101.377 128.178C101.909 128.427 102.349 128.82 102.695 129.357C103.008 129.831 103.21 130.38 103.303 131.005C103.357 131.371 103.379 131.898 103.369 132.587H97.9053C97.9346 133.388 98.186 133.949 98.6597 134.271C98.9478 134.472 99.2944 134.572 99.6997 134.572C100.129 134.572 100.479 134.45 100.747 134.206C100.894 134.074 101.023 133.891 101.135 133.656H103.267C103.213 134.13 102.966 134.611 102.527 135.099C101.843 135.875 100.886 136.264 99.6558 136.264C98.6401 136.264 97.7441 135.937 96.9678 135.282C96.1914 134.628 95.8032 133.563 95.8032 132.089C95.8032 130.707 96.1524 129.647 96.8506 128.91C97.5537 128.173 98.4644 127.804 99.5825 127.804Z" fill="#E6EAF1"/>
</svg>
